<?xml version="1.0" encoding="UTF-8" standalone="no"?>
<!-- Generator: Adobe Illustrator 16.0.0, SVG Export Plug-In . SVG Version: 6.00 Build 0)  -->

<svg
   xmlns:dc="http://purl.org/dc/elements/1.1/"
   xmlns:cc="http://creativecommons.org/ns#"
   xmlns:rdf="http://www.w3.org/1999/02/22-rdf-syntax-ns#"
   xmlns:svg="http://www.w3.org/2000/svg"
   xmlns="http://www.w3.org/2000/svg"
   xmlns:sodipodi="http://sodipodi.sourceforge.net/DTD/sodipodi-0.dtd"
   xmlns:inkscape="http://www.inkscape.org/namespaces/inkscape"
   version="1.1"
   id="图层_1"
   x="0px"
   y="0px"
   width="714.34528"
   height="770.31903"
   viewBox="0 0 714.34529 770.31906"
   enable-background="new 0 0 1000 1000"
   xml:space="preserve"
   inkscape:version="0.91 r13725"
   sodipodi:docname="baidu.svg"><metadata
   id="metadata11"><rdf:RDF><cc:Work
       rdf:about=""><dc:format>image/svg+xml</dc:format><dc:type
         rdf:resource="http://purl.org/dc/dcmitype/StillImage" /><dc:title></dc:title></cc:Work></rdf:RDF></metadata><defs
   id="defs9" /><sodipodi:namedview
   pagecolor="#ffffff"
   bordercolor="#666666"
   borderopacity="1"
   objecttolerance="10"
   gridtolerance="10"
   guidetolerance="10"
   inkscape:pageopacity="0"
   inkscape:pageshadow="2"
   inkscape:window-width="1136"
   inkscape:window-height="872"
   id="namedview7"
   showgrid="false"
   fit-margin-top="0"
   fit-margin-left="0"
   fit-margin-right="0"
   fit-margin-bottom="0"
   inkscape:zoom="0.236"
   inkscape:cx="351.59312"
   inkscape:cy="379.53459"
   inkscape:window-x="0"
   inkscape:window-y="0"
   inkscape:window-maximized="0"
   inkscape:current-layer="图层_1" />
	<path
   d="m 265.26913,238.06 c 46.672,0 84.573,-53.255 84.573,-119.013 0,-65.951 -37.901,-119.047 -84.573,-119.047 -46.573,0 -84.539,53.097 -84.539,119.047 -0.001,65.755 37.967,119.013 84.539,119.013 z m -157.001,168.08 c 84.686,-18.231 73.173,-118.097 70.458,-140.13 -4.063,-33.859 -44.126,-92.625 -98.565005,-87.763 -68.533,5.626 -78.6589997,103.65 -78.6589997,103.65 -9.063,45.382 22.4339997,142.091 106.7660047,124.243 z m 358.238,-160.322 c 62.432,8.23 102.854,-57.844 110.626,-107.864 7.985,-49.971 -32.091,-107.84 -76.399,-117.654 -44.312,-10.363 -99.497,59.945 -104.798,105.694 -5.897,55.91 8.293,112.066 70.571,119.824 z m 152.818,293.987 c 0,0 -96.359,-73.844 -152.818,-153.903 -76.468,-118.054 -185.163,-70.004 -221.391,-9.949 -36.099,59.812 -92.54,98.113 -100.791,108.089 -8.091,9.831 -116.622005,67.821 -92.445005,173.812 24.038,105.985 108.723005,103.775 108.723005,103.775 0,0 62.604,6.193 134.656,-9.411 72.724,-16.014 134.979,3.495 134.979,3.495 0,0 169.098,56.172 215.547,-51.799 46.23,-107.837 -26.46,-164.109 -26.46,-164.109 z m 94.696,-209.987 c 0,-23.835 -19.915,-95.846 -94.695,-95.846 -74.285,0 -84.358,67.888 -84.358,116.008 0,46.051 3.773,109.947 96.663,108.12 92.498,-1.97 82.39,-104.209 82.39,-128.282 z"
   id="path3"
   inkscape:connector-curvature="0"
   style="fill:#fff" />
	
</svg>