<?xml version="1.0" encoding="UTF-8" standalone="no"?>
<!-- Created with Inkscape (http://www.inkscape.org/) -->

<svg
   xmlns:dc="http://purl.org/dc/elements/1.1/"
   xmlns:cc="http://creativecommons.org/ns#"
   xmlns:rdf="http://www.w3.org/1999/02/22-rdf-syntax-ns#"
   xmlns:svg="http://www.w3.org/2000/svg"
   xmlns="http://www.w3.org/2000/svg"
   xmlns:sodipodi="http://sodipodi.sourceforge.net/DTD/sodipodi-0.dtd"
   xmlns:inkscape="http://www.inkscape.org/namespaces/inkscape"
   width="575.82324"
   height="164.68419"
   id="svg4199"
   version="1.1"
   inkscape:version="0.91 r13725"
   sodipodi:docname="BBC.svg">
  <defs
     id="defs4201" />
  <sodipodi:namedview
     id="base"
     borderopacity="1.0"
     inkscape:pageopacity="0.0"
     inkscape:pageshadow="2"
     inkscape:zoom="0.40651735"
     inkscape:cx="188.6398"
     inkscape:cy="-10.85903"
     inkscape:document-units="px"
     inkscape:current-layer="flowRoot3064"
     showgrid="false"
     inkscape:window-width="1055"
     inkscape:window-height="1038"
     inkscape:window-x="3143"
     inkscape:window-y="1449"
     inkscape:window-maximized="0"
     fit-margin-top="0.5"
     fit-margin-left="0.5"
     fit-margin-right="0.5"
     fit-margin-bottom="0.5" />
  <metadata
     id="metadata4204">
    <rdf:RDF>
      <cc:Work
         rdf:about="">
        <dc:format>image/svg+xml</dc:format>
        <dc:type
           rdf:resource="http://purl.org/dc/dcmitype/StillImage" />
        <dc:title></dc:title>
      </cc:Work>
    </rdf:RDF>
  </metadata>
  <g
     inkscape:label="Layer 1"
     inkscape:groupmode="layer"
     id="layer1"
     transform="translate(521.07505,793.83259)">
    <g
       transform="matrix(1.8256858,0,0,1.8256858,-549.39711,-1162.9093)"
       style="font-style:normal;font-weight:normal;font-size:40px;line-height:125%;font-family:Sans;letter-spacing:0px;word-spacing:0px;fill-opacity:1;stroke:none"
       id="flowRoot3064">
      <g
         style="fill:#fff"
         id="g3087"
         transform="matrix(12.223881,0,0,12.223881,-862.68816,440.98453)">
        <g
           style="fill:#fff"
           id="g3101"
           transform="matrix(0.83899775,0,0,0.83899775,71.865485,-19.515309)">
          <path
             inkscape:connector-curvature="0"
             d="M 27.261,1.217 C 27.22,1.21 27.178,1.203 27.136,1.196 L 27.086,1.188 C 27.015,1.178 26.943,1.17 26.87,1.164 26.82,1.16 26.771,1.155 26.722,1.152 26.634,1.147 26.547,1.145 26.463,1.145 c -0.038,0 -0.06,0 -0.097,10e-4 -0.07,0.001 -0.139,0.005 -0.206,0.009 -0.039,0.002 -0.077,0.006 -0.114,0.01 -0.055,0.004 -0.11,0.011 -0.163,0.017 l -0.046,0.006 -0.049,0.008 -0.062,0.011 c -0.027,0.004 -0.053,0.009 -0.08,0.014 -0.036,0.006 -0.073,0.013 -0.108,0.021 -0.221,0.047 -0.425,0.109 -0.612,0.183 -0.097,0.038 -0.191,0.079 -0.28,0.122 -0.074,0.036 -0.145,0.074 -0.213,0.112 -0.066,0.038 -0.13,0.077 -0.191,0.118 -0.035,0.023 -0.07,0.047 -0.103,0.071 -0.029,0.021 -0.058,0.042 -0.086,0.063 -0.058,0.046 -0.115,0.092 -0.168,0.139 -0.05,0.044 -0.098,0.089 -0.144,0.134 -0.038,0.039 -0.077,0.078 -0.114,0.119 -0.037,0.042 -0.074,0.084 -0.11,0.128 -0.038,0.048 -0.076,0.096 -0.112,0.147 -0.028,0.036 -0.053,0.074 -0.079,0.113 -0.017,0.026 -0.034,0.054 -0.051,0.079 -0.097,0.159 -0.182,0.329 -0.251,0.509 -0.087,0.227 -0.15,0.47 -0.184,0.728 -0.011,0.081 -0.02,0.164 -0.025,0.248 -0.003,0.063 -0.006,0.13 -0.006,0.196 0,0.051 10e-4,0.099 0.004,0.147 0.003,0.051 0.007,0.101 0.013,0.151 l 0.003,0.034 c 0.008,0.06 0.017,0.117 0.028,0.176 0.005,0.021 0.01,0.044 0.014,0.065 0.01,0.048 0.021,0.096 0.034,0.143 0.016,0.06 0.034,0.119 0.053,0.177 0.024,0.071 0.049,0.14 0.078,0.208 0.044,0.105 0.094,0.209 0.146,0.306 0.032,0.057 0.063,0.112 0.096,0.165 0.027,0.042 0.054,0.083 0.082,0.123 0.036,0.052 0.073,0.104 0.111,0.151 0.039,0.051 0.08,0.098 0.119,0.144 0.049,0.058 0.1,0.109 0.148,0.157 l 0.026,0.026 c 0.04,0.038 0.083,0.079 0.133,0.122 0.033,0.027 0.069,0.059 0.107,0.089 0.036,0.027 0.073,0.056 0.112,0.085 0.047,0.033 0.096,0.066 0.149,0.101 0.055,0.036 0.113,0.072 0.175,0.106 0.123,0.068 0.258,0.135 0.407,0.193 0.056,0.023 0.114,0.044 0.173,0.065 0.059,0.02 0.12,0.039 0.182,0.057 0.108,0.03 0.22,0.059 0.338,0.08 0.095,0.02 0.194,0.034 0.296,0.047 0.102,0.013 0.207,0.021 0.316,0.027 0.053,0.003 0.106,0.004 0.161,0.005 0.025,0.001 0.051,0.001 0.076,0.001 0.195,0 0.376,-0.007 0.543,-0.021 l 0.033,-0.003 c 0.067,-0.007 0.131,-0.014 0.194,-0.021 0.095,-0.011 0.187,-0.025 0.273,-0.041 0.056,-0.01 0.108,-0.02 0.16,-0.032 0.08,-0.016 0.156,-0.035 0.229,-0.055 C 27.874,7.415 27.926,7.4 27.976,7.385 28.035,7.367 28.093,7.348 28.149,7.33 L 28.2,7.31 c 0.027,-0.009 0.063,-0.021 0.105,-0.039 0.057,-0.021 0.123,-0.049 0.2,-0.081 0.046,-0.02 0.096,-0.042 0.147,-0.064 0.045,-0.021 0.092,-0.044 0.141,-0.068 0.02,-0.01 0.039,-0.019 0.061,-0.029 l 0,-1.191 C 28.84,5.846 28.825,5.855 28.811,5.862 l -0.082,0.051 c -0.08,0.049 -0.16,0.096 -0.238,0.139 -0.086,0.046 -0.172,0.09 -0.254,0.13 C 28.089,6.251 27.947,6.31 27.81,6.359 27.55,6.453 27.311,6.511 27.101,6.548 27.076,6.552 27.051,6.556 27.027,6.56 26.969,6.569 26.913,6.576 26.86,6.582 26.777,6.591 26.7,6.596 26.63,6.599 26.585,6.601 26.543,6.602 26.504,6.602 26.419,6.602 26.332,6.6 26.243,6.594 26.14,6.586 26.034,6.574 25.927,6.557 25.755,6.528 25.582,6.484 25.413,6.423 25.387,6.414 25.362,6.403 25.338,6.394 25.321,6.387 25.304,6.38 25.289,6.374 25.261,6.361 25.234,6.35 25.206,6.337 25.148,6.31 25.09,6.279 25.033,6.248 25.006,6.231 24.979,6.216 24.95,6.197 24.921,6.178 24.893,6.161 24.865,6.141 24.831,6.118 24.796,6.092 24.762,6.066 24.73,6.041 24.697,6.012 24.669,5.989 L 24.629,5.954 24.61,5.936 24.598,5.925 24.584,5.911 C 24.531,5.857 24.481,5.804 24.437,5.751 24.411,5.72 24.388,5.689 24.365,5.658 24.344,5.63 24.324,5.6 24.304,5.57 24.286,5.543 24.268,5.514 24.252,5.486 24.228,5.444 24.205,5.402 24.184,5.36 24.167,5.324 24.151,5.29 24.136,5.254 24.11,5.193 24.088,5.134 24.07,5.075 24.056,5.03 24.043,4.986 24.032,4.943 24.001,4.819 23.985,4.706 23.976,4.608 23.972,4.571 23.97,4.537 23.968,4.504 23.966,4.457 23.965,4.415 23.965,4.382 c 0,-0.022 0.001,-0.047 0.002,-0.075 0.003,-0.069 0.008,-0.155 0.023,-0.253 0.008,-0.06 0.02,-0.124 0.036,-0.191 0.011,-0.045 0.023,-0.089 0.037,-0.136 0.014,-0.043 0.029,-0.085 0.046,-0.129 0.011,-0.03 0.023,-0.059 0.036,-0.089 0.017,-0.04 0.037,-0.081 0.058,-0.122 0.015,-0.03 0.033,-0.061 0.051,-0.092 0.039,-0.068 0.083,-0.135 0.134,-0.202 0.018,-0.024 0.037,-0.048 0.056,-0.072 0.026,-0.03 0.052,-0.062 0.08,-0.092 0.014,-0.014 0.028,-0.03 0.043,-0.045 0.218,-0.218 0.464,-0.382 0.718,-0.498 0.04,-0.018 0.08,-0.034 0.12,-0.05 0.041,-0.017 0.081,-0.03 0.122,-0.044 0.044,-0.016 0.089,-0.028 0.133,-0.041 0.042,-0.013 0.084,-0.022 0.126,-0.032 0.041,-0.009 0.084,-0.018 0.125,-0.025 0.047,-0.009 0.093,-0.016 0.138,-0.021 0.047,-0.006 0.092,-0.011 0.138,-0.016 0.086,-0.007 0.172,-0.011 0.255,-0.011 0.028,0 0.055,0 0.082,0 0.062,0.002 0.122,0.004 0.182,0.008 0.041,0.003 0.08,0.006 0.12,0.01 0.075,0.007 0.147,0.016 0.216,0.026 0.061,0.009 0.121,0.02 0.176,0.03 0.086,0.017 0.164,0.036 0.234,0.055 0.046,0.013 0.088,0.024 0.126,0.036 0.058,0.018 0.107,0.032 0.146,0.045 0.066,0.023 0.102,0.037 0.102,0.037 0.059,0.021 0.116,0.044 0.172,0.066 0.076,0.029 0.149,0.063 0.218,0.094 0.058,0.027 0.112,0.054 0.164,0.079 0.043,0.021 0.082,0.042 0.12,0.061 0.064,0.034 0.119,0.064 0.164,0.089 l 0.123,0.066 0,-1.17 c 0,0 -0.073,-0.03 -0.199,-0.078 C 28.531,1.579 28.466,1.554 28.391,1.528 28.349,1.513 28.306,1.498 28.259,1.481 28.222,1.469 28.184,1.457 28.144,1.443 28.1,1.429 28.053,1.414 28.006,1.399 27.971,1.389 27.936,1.378 27.9,1.369 L 27.868,1.358 C 27.833,1.349 27.798,1.339 27.762,1.33 27.72,1.318 27.677,1.308 27.633,1.297 27.605,1.29 27.577,1.282 27.548,1.276 27.502,1.265 27.455,1.255 27.408,1.246 27.36,1.234 27.31,1.226 27.261,1.217 M 21.409,0 30.7,0 l 0,8.742 -9.291,0 0,-8.742 z"
             id="path6"
             style="fill:#fff" />
          <path
             inkscape:connector-curvature="0"
             d="m 14.269,4.821 0,1.718 1.115,0 c 0,0 0.023,-10e-4 0.059,-0.002 0.038,-0.001 0.091,-0.003 0.155,-0.009 0.122,-0.012 0.281,-0.033 0.436,-0.085 0.14,-0.048 0.276,-0.118 0.38,-0.224 0.04,-0.039 0.073,-0.082 0.1,-0.124 0.088,-0.138 0.11,-0.277 0.114,-0.356 0.003,-0.034 0.003,-0.054 0.003,-0.054 0,0 0.001,-0.017 0,-0.044 C 16.63,5.609 16.626,5.544 16.608,5.476 16.587,5.395 16.548,5.299 16.478,5.213 16.464,5.196 16.45,5.18 16.434,5.164 16.404,5.133 16.371,5.104 16.334,5.077 16.273,5.032 16.204,4.994 16.128,4.961 16.028,4.917 15.915,4.885 15.792,4.862 15.729,4.85 15.662,4.84 15.594,4.834 15.552,4.83 15.51,4.827 15.465,4.825 15.427,4.822 15.387,4.821 15.347,4.821 c -0.396,0.001 -1.078,0 -1.078,0"
             id="path8"
             style="fill:#fff" />
          <path
             inkscape:connector-curvature="0"
             d="m 14.269,2.209 0,1.629 0.54,0 c 0,0 0.036,0 0.084,-0.002 0.037,-10e-4 0.082,-0.004 0.121,-0.005 0.111,-0.009 0.265,-0.023 0.419,-0.066 0.03,-0.01 0.06,-0.019 0.089,-0.029 0.121,-0.042 0.237,-0.105 0.326,-0.194 0.072,-0.07 0.119,-0.147 0.15,-0.224 C 16.037,3.225 16.05,3.134 16.056,3.073 16.06,3.016 16.06,2.98 16.06,2.98 c 0,0 0.001,-0.027 -10e-4,-0.069 C 16.055,2.84 16.041,2.725 15.985,2.614 15.957,2.56 15.921,2.509 15.871,2.459 15.81,2.4 15.736,2.355 15.657,2.319 15.505,2.252 15.331,2.225 15.184,2.215 15.12,2.211 15.062,2.21 15.013,2.21 l -0.744,0"
             id="path10"
             style="fill:#fff" />
          <path
             inkscape:connector-curvature="0"
             d="m 13.142,1.226 0,6.297 2.369,0 c 0,0 1.157,0.032 1.795,-0.606 0.519,-0.52 0.482,-1.12 0.482,-1.12 0,0 0.037,-0.627 -0.444,-1.109 -0.41,-0.409 -0.933,-0.519 -0.933,-0.519 0,0 0.236,-0.11 0.418,-0.292 0.085,-0.085 0.387,-0.358 0.387,-1.021 0,-0.669 -0.444,-1.053 -0.444,-1.053 0,0 -0.487,-0.576 -1.587,-0.576 l -2.043,0 M 10.704,0 l 9.29,0 0,8.742 -9.29,0 0,-8.742 z"
             id="path12"
             style="fill:#fff" />
          <path
             inkscape:connector-curvature="0"
             d="m 3.564,4.821 0,1.718 1.116,0 c 0,0 0.022,-10e-4 0.058,-0.002 C 4.776,6.536 4.83,6.534 4.894,6.528 5.016,6.517 5.174,6.495 5.33,6.443 5.47,6.395 5.606,6.325 5.71,6.219 5.75,6.18 5.783,6.137 5.81,6.095 5.898,5.957 5.92,5.818 5.925,5.739 5.927,5.705 5.927,5.685 5.927,5.685 c 0,0 0.001,-0.017 0,-0.044 C 5.925,5.609 5.921,5.545 5.903,5.477 5.882,5.396 5.843,5.3 5.773,5.214 5.76,5.197 5.746,5.181 5.73,5.165 5.699,5.134 5.666,5.105 5.63,5.078 5.568,5.033 5.5,4.995 5.423,4.962 5.323,4.918 5.211,4.886 5.087,4.863 5.024,4.852 4.958,4.841 4.89,4.835 4.848,4.831 4.805,4.828 4.76,4.826 4.723,4.823 4.683,4.822 4.644,4.822 4.248,4.822 3.564,4.821 3.564,4.821"
             id="path14"
             style="fill:#fff" />
          <path
             inkscape:connector-curvature="0"
             d="m 3.564,2.209 0,1.629 0.54,0 c 0,0 0.036,0 0.084,-0.002 C 4.226,3.835 4.271,3.832 4.31,3.831 4.42,3.822 4.574,3.808 4.729,3.765 4.759,3.755 4.789,3.746 4.819,3.736 4.939,3.694 5.055,3.631 5.145,3.542 5.216,3.472 5.263,3.395 5.295,3.318 5.333,3.225 5.346,3.134 5.352,3.073 5.357,3.016 5.356,2.98 5.356,2.98 5.356,2.98 5.357,2.952 5.354,2.91 5.352,2.839 5.336,2.725 5.28,2.613 5.253,2.56 5.216,2.508 5.167,2.458 5.106,2.399 5.032,2.354 4.953,2.318 4.8,2.251 4.626,2.225 4.479,2.214 4.417,2.21 4.357,2.209 4.309,2.209 l -0.745,0"
             id="path16"
             style="fill:#fff" />
          <path
             inkscape:connector-curvature="0"
             d="m 2.437,1.226 0,6.297 2.37,0 c 0,0 1.156,0.032 1.794,-0.606 0.52,-0.52 0.482,-1.12 0.482,-1.12 0,0 0.038,-0.628 -0.443,-1.11 C 6.23,4.277 5.707,4.168 5.707,4.168 c 0,0 0.236,-0.11 0.418,-0.292 C 6.21,3.791 6.512,3.518 6.512,2.854 6.512,2.185 6.067,1.801 6.067,1.801 c 0,0 -0.487,-0.575 -1.587,-0.575 l -2.043,0 M 0,0 9.289,0 9.289,8.742 0,8.742 0,0 Z"
             id="path18"
             style="fill:#fff" />
        </g>
      </g>
    </g>
  </g>
</svg>
