<?xml version="1.0" encoding="utf-8"?>
<!-- Generator: Adobe Illustrator 18.1.1, SVG Export Plug-In . SVG Version: 6.00 Build 0)  -->
<!DOCTYPE svg PUBLIC "-//W3C//DTD SVG 1.1//EN" "http://www.w3.org/Graphics/SVG/1.1/DTD/svg11.dtd">
<svg version="1.1" xmlns="http://www.w3.org/2000/svg" xmlns:xlink="http://www.w3.org/1999/xlink" x="0px" y="0px"
	 viewBox="0 0 64 64" enable-background="new 0 0 64 64" xml:space="preserve">
<g id="Bg" display="none">
	<rect x="-116" y="-54" display="inline" fill="#666666" width="851" height="1053"/>
</g>
<g id="Color">
	<path fill="#fff" d="M32,0C14.327,0,0,14.327,0,32s14.327,32,32,32s32-14.327,32-32S49.673,0,32,0z M56,32
		c0,5.183-1.648,9.978-4.442,13.901L36,30.343V8.338C47.35,10.243,56,20.109,56,32z M28,55.662c-3.646-0.612-7.01-2.045-9.901-4.104
		L28,41.657V55.662z M36,41.657l9.901,9.901C43.01,53.617,39.646,55.05,36,55.662V41.657z M28,8.338v22.005L12.442,45.901
		C9.648,41.978,8,37.183,8,32C8,20.109,16.65,10.243,28,8.338z"/>
</g>
<g id="White" display="none">
	<path display="inline" fill="#FFFFFF" d="M32,0C14.327,0,0,14.327,0,32s14.327,32,32,32s32-14.327,32-32S49.673,0,32,0z M56,32
		c0,5.183-1.648,9.978-4.442,13.901L36,30.343V8.338C47.35,10.243,56,20.109,56,32z M28,55.662c-3.646-0.612-7.01-2.045-9.901-4.104
		L28,41.657V55.662z M36,41.657l9.901,9.901C43.01,53.617,39.646,55.05,36,55.662V41.657z M28,8.338v22.005L12.442,45.901
		C9.648,41.978,8,37.183,8,32C8,20.109,16.65,10.243,28,8.338z"/>
</g>
</svg>
