<?xml version="1.0" encoding="UTF-8" standalone="no"?>
<!-- Generator: Adobe Illustrator 17.0.0, SVG Export Plug-In . SVG Version: 6.00 Build 0)  -->

<svg
   xmlns:dc="http://purl.org/dc/elements/1.1/"
   xmlns:cc="http://creativecommons.org/ns#"
   xmlns:rdf="http://www.w3.org/1999/02/22-rdf-syntax-ns#"
   xmlns:svg="http://www.w3.org/2000/svg"
   xmlns="http://www.w3.org/2000/svg"
   xmlns:sodipodi="http://sodipodi.sourceforge.net/DTD/sodipodi-0.dtd"
   xmlns:inkscape="http://www.inkscape.org/namespaces/inkscape"
   version="1.1"
   id="Layer_1"
   x="0px"
   y="0px"
   width="154.69162"
   height="155.53479"
   viewBox="0 0 154.69162 155.5348"
   enable-background="new 0 0 372 285.386"
   xml:space="preserve"
   inkscape:version="0.91 r13725"
   sodipodi:docname="duolingo.svg"><metadata
   id="metadata43"><rdf:RDF><cc:Work
       rdf:about=""><dc:format>image/svg+xml</dc:format><dc:type
         rdf:resource="http://purl.org/dc/dcmitype/StillImage" /><dc:title></dc:title></cc:Work></rdf:RDF></metadata><defs
   id="defs41" /><sodipodi:namedview
   pagecolor="#ffffff"
   bordercolor="#666666"
   borderopacity="1"
   objecttolerance="10"
   gridtolerance="10"
   guidetolerance="10"
   inkscape:pageopacity="0"
   inkscape:pageshadow="2"
   inkscape:window-width="1079"
   inkscape:window-height="813"
   id="namedview39"
   showgrid="false"
   fit-margin-top="0"
   fit-margin-left="0"
   fit-margin-right="0"
   fit-margin-bottom="0"
   inkscape:zoom="0.79569892"
   inkscape:cx="78.184"
   inkscape:cy="67.000038"
   inkscape:window-x="0"
   inkscape:window-y="0"
   inkscape:window-maximized="0"
   inkscape:current-layer="Layer_1" />









<g
   id="g21"
   transform="translate(-107.816,-55.415)">
	<path
   d="m 262.504,108.171 c 0,-1.599 0.097,-4.458 -3.586,-4.458 -3.877,0 -18.834,9.658 -22.517,9.658 -2.811,0 1.516,-18.843 1.516,-35.697 0,-4.265 -1.9,-10.66 -5.242,-10.66 -8.175,0 -9.169,7.332 -26.905,7.332 -28.108,0 -31.497,-18.931 -45.745,-18.931 -12.471,0 -12.148,29.461 -12.148,33.338 0,3.877 0.953,16.8 -4.975,16.8 -6.849,0 -22.745,-12.471 -30.175,-12.471 -2.972,0 -4.911,4.2 -4.911,11.889 0,35.021 40.32,50.917 41.418,55.957 5.492,24.425 19.837,34.63 38.705,34.63 28.237,0 36.249,-34.889 37.897,-35.858 37.8,-22.002 36.668,-49.93 36.668,-51.529 z m -89.024,9.397 c -7.137,0 -12.923,-7.035 -12.923,-15.713 0,-8.678 5.786,-15.713 12.923,-15.713 7.137,0 12.923,7.035 12.923,15.713 0,8.678 -5.786,15.713 -12.923,15.713 z m 22.089,13.474 c -0.062,0.03 -0.116,0.059 -0.164,0.088 -0.992,0.455 -2.142,0.72 -3.456,0.72 -3.921,0 -4.443,-5.828 -4.432,-9.048 0.008,-0.766 0.261,-1.303 0.701,-1.303 0.388,0 0.697,0.314 0.994,0.703 1.473,2.526 4.147,5.507 6.566,7.816 0.001,0.002 0.004,0.012 0.004,0.012 0,0 0.723,0.565 -0.213,1.012 z m 6.002,0.464 c -1.389,0 -11.61,-9.499 -11.61,-13.555 0,-4.056 3.889,-7.277 9.333,-7.277 4.5,0 7.888,5.222 7.888,10.388 0,5.166 -4.222,10.444 -5.611,10.444 z m 26.915,-26.685 c -0.409,7.633 -5.57,13.659 -11.528,13.458 -5.958,-0.201 -10.456,-6.551 -10.047,-14.185 0.409,-7.634 5.57,-13.659 11.528,-13.458 5.958,0.201 10.456,6.552 10.047,14.185 z"
   id="path23"
   inkscape:connector-curvature="0"
   style="fill:#fff" />
	<path
   d="m 173.214,93.224 c -1.013,0 -1.975,0.262 -2.848,0.728 0.67,0.657 1.098,1.597 1.098,2.651 0,1.984 -1.489,3.593 -3.325,3.593 -0.656,0 -1.263,-0.212 -1.778,-0.566 -0.156,0.711 -0.247,1.455 -0.247,2.226 0,4.767 3.178,8.631 7.099,8.631 3.921,0 7.099,-3.864 7.099,-8.631 10e-4,-4.768 -3.177,-8.632 -7.098,-8.632 z"
   id="path25"
   inkscape:connector-curvature="0"
   style="fill:#fff" />
	<path
   d="m 218.094,96.401 c -0.945,-0.045 -1.857,0.206 -2.693,0.676 0.679,0.587 1.137,1.484 1.17,2.516 0.058,1.83 -1.218,3.354 -2.849,3.404 -0.752,0.023 -1.441,-0.281 -1.979,-0.784 -0.173,0.644 -0.296,1.318 -0.347,2.021 -0.324,4.488 2.149,8.256 5.524,8.418 3.375,0.162 6.374,-3.345 6.699,-7.833 0.323,-4.487 -2.15,-8.256 -5.525,-8.418 z"
   id="path27"
   inkscape:connector-curvature="0"
   style="fill:#fff" />
	<path
   d="M 186.048,128.613"
   id="path29"
   inkscape:connector-curvature="0"
   style="fill:#fff" />
	<path
   d="m 182.363,200.189 c 4.831,-0.253 8.298,0.776 8.525,5.113 0.227,4.337 -5.658,5.471 -8.787,5.635 -3.129,0.164 -6.671,-1.247 -6.835,-4.376 -0.164,-3.129 2.733,-6.143 7.097,-6.372 z"
   id="path31"
   inkscape:connector-curvature="0"
   style="fill:#fff" />
	<path
   d="m 212.044,191.32 c 4.611,-0.242 4.709,4.762 4.729,5.147 0.02,0.384 0.493,5.204 -7.577,5.627 -5.105,0.268 -4.95,-2.025 -5.009,-3.15 -0.059,-1.125 2.01,-7.317 7.857,-7.624 z"
   id="path33"
   inkscape:connector-curvature="0"
   style="fill:#fff" />
</g>

</svg>