<?xml version="1.0" encoding="UTF-8" standalone="no"?>
<!-- Generator: Adobe Illustrator 18.1.1, SVG Export Plug-In . SVG Version: 6.00 Build 0)  -->

<svg
   xmlns:dc="http://purl.org/dc/elements/1.1/"
   xmlns:cc="http://creativecommons.org/ns#"
   xmlns:rdf="http://www.w3.org/1999/02/22-rdf-syntax-ns#"
   xmlns:svg="http://www.w3.org/2000/svg"
   xmlns="http://www.w3.org/2000/svg"
   xmlns:xlink="http://www.w3.org/1999/xlink"
   xmlns:sodipodi="http://sodipodi.sourceforge.net/DTD/sodipodi-0.dtd"
   xmlns:inkscape="http://www.inkscape.org/namespaces/inkscape"
   version="1.1"
   id="Layer_1"
   x="0px"
   y="0px"
   viewBox="425 298.7 261.22837 309.11956"
   enable-background="new 425 298.7 542.6 197.3"
   xml:space="preserve"
   inkscape:version="0.91 r13725"
   sodipodi:docname="ebay.svg"
   width="261.22836"
   height="309.11957"><metadata
   id="metadata41"><rdf:RDF><cc:Work
       rdf:about=""><dc:format>image/svg+xml</dc:format><dc:type
         rdf:resource="http://purl.org/dc/dcmitype/StillImage" /><dc:title></dc:title></cc:Work></rdf:RDF></metadata><defs
   id="defs39" /><sodipodi:namedview
   pagecolor="#ffffff"
   bordercolor="#666666"
   borderopacity="1"
   objecttolerance="10"
   gridtolerance="10"
   guidetolerance="10"
   inkscape:pageopacity="0"
   inkscape:pageshadow="2"
   inkscape:window-width="1086"
   inkscape:window-height="590"
   id="namedview37"
   showgrid="false"
   fit-margin-top="0"
   fit-margin-left="0"
   fit-margin-right="0"
   fit-margin-bottom="0"
   inkscape:zoom="0.54552159"
   inkscape:cx="298.03712"
   inkscape:cy="206.80335"
   inkscape:window-x="980"
   inkscape:window-y="248"
   inkscape:window-maximized="0"
   inkscape:current-layer="Layer_1" />
<g
   id="g3"
   transform="translate(0,6.7846672e-6)">
	<defs
   id="defs5">
		<path
   id="SVGID_1_"
   d="m 1842.7,355.4 -34.7,0 0,-8.9 78.7,0 0,8.9 -34.1,0 -0.1,98.6 -9.5,0 -0.3,-98.6 z"
   inkscape:connector-curvature="0" />
	</defs>
	<clipPath
   id="SVGID_2_">
		<use
   xlink:href="#SVGID_1_"
   overflow="visible"
   id="use9"
   style="overflow:visible"
   x="0"
   y="0"
   width="100%"
   height="100%" />
	</clipPath>
	<path
   clip-path="url(#SVGID_2_)"
   d="m 994.2,454.1 0,-107.6 15.5,0 40.4,93.7 41.3,-93.7 14.8,0 0,107.6 -9.7,0 0,-99.4 -0.3,0 -41.2,99.4 -9.7,0 -41.1,-98.9 -0.3,0 0,98.9 -9.7,0 z"
   id="path11"
   inkscape:connector-curvature="0"
   style="fill:#796e65" />
	<path
   clip-path="url(#SVGID_2_)"
   d="m 1115.8,454.1 42.6,-107.6 11.3,0 42.9,107.6 -10.6,0 -11.5,-29.1 -53.5,0 -11.3,29.1 -9.9,0 z m 71.3,-38 -23.2,-60.6 -23.7,60.6 46.9,0 z"
   id="path13"
   inkscape:connector-curvature="0"
   style="fill:#796e65" />
	<path
   clip-path="url(#SVGID_2_)"
   d="m 1223.8,454.1 0,-108 9.7,0 0,108 -9.7,0 z"
   id="path15"
   inkscape:connector-curvature="0"
   style="fill:#796e65" />
	<path
   clip-path="url(#SVGID_2_)"
   d="m 1257,346.5 11,0 59.3,94.6 0.3,0 0,-94.6 9.7,0 0,107.6 -12.2,0 -58.1,-93 -0.3,0 0,93 -9.7,0 0,-107.6 z"
   id="path17"
   inkscape:connector-curvature="0"
   style="fill:#796e65" />
	<path
   clip-path="url(#SVGID_2_)"
   d="m 1421.1,456.3 c -17.1,0 -31.6,-12.5 -32,-30.2 l 10.4,0 c 0.3,16.5 12.5,21.3 27,21.3 12.1,0 25.9,-7 25.9,-20.7 0,-10.7 -7.7,-15.8 -16.8,-18.8 -17.4,-5.8 -44,-11.3 -44,-34.6 0,-18.8 17.3,-29.1 34.3,-29.1 14.2,0 32.6,4.9 35,25.6 l -10.4,0 c -0.3,-13.3 -12.4,-16.7 -23.4,-16.7 -11.2,0 -25,5.7 -25,18.8 0,30.5 60.8,16.7 60.8,53.8 -0.1,23.5 -20.2,30.6 -41.8,30.6 z"
   id="path19"
   inkscape:connector-curvature="0"
   style="fill:#796e65" />
	<path
   clip-path="url(#SVGID_2_)"
   d="m 1502.3,355.4 -34.7,0 0,-8.9 78.7,0 0,8.9 -34.1,0 -0.1,98.6 -9.5,0 -0.3,-98.6 z"
   id="path21"
   inkscape:connector-curvature="0"
   style="fill:#796e65" />
	<path
   clip-path="url(#SVGID_2_)"
   d="m 1567.4,454.1 -9.7,0 0,-107.6 35.2,0 c 9.4,0 17.1,0.6 25.3,5.7 7.5,4.5 11,12.2 11,22.5 0,11.6 -8.2,20 -20.7,23.1 l 0,0.3 c 13.7,2.2 16.7,11.5 18,24 1.9,17.4 1.3,25.5 5.7,32 l -11.2,0 c -2.5,-7.2 -3.1,-14.8 -3.7,-22.4 -2.2,-24.6 -3.7,-28.9 -23.2,-28.9 l -26.7,0 0,51.3 0,0 z m 20.7,-60.2 c 13.7,0 30.7,-0.9 30.7,-19.2 0,-20.7 -19.4,-19.2 -29.7,-19.2 l -21.8,0 0,38.4 20.8,0 z"
   id="path23"
   inkscape:connector-curvature="0"
   style="fill:#796e65" />
	<path
   clip-path="url(#SVGID_2_)"
   d="m 1651,454.1 0,-107.6 63.9,0 0,8.9 -54.2,0 0,38.6 52.2,0 0,8.9 -52.2,0 0,42.2 56.5,0 0,8.9 -66.2,0 0,0.1 z"
   id="path25"
   inkscape:connector-curvature="0"
   style="fill:#796e65" />
	<path
   clip-path="url(#SVGID_2_)"
   d="m 1736,454.1 0,-107.6 63.9,0 0,8.9 -54.2,0 0,38.6 52.2,0 0,8.9 -52.2,0 0,42.2 56.5,0 0,8.9 -66.2,0 0,0.1 z"
   id="path27"
   inkscape:connector-curvature="0"
   style="fill:#796e65" />
</g> 
<path
   d="m 544.1304,553.05203 c 0,7.2 0.2,14.3 0.8,20.6 l -22.9,0 c -0.6,-5.3 -0.8,-10.5 -0.8,-15.5 -12.4,15.3 -27.2,19.6 -47.6,19.6 -30.4,0 -46.6,-16 -46.6,-34.6 0,-26.9 22.1,-36.4 60.5,-37.2 10.5,-0.2 22.3,-0.3 32,-0.3 l 0,-2.6 c 0,-18 -11.5,-25.4 -31.5,-25.4 -14.8,0 -25.8,6.1 -26.9,16.8 l -25.9,0 c 2.7,-26.5 30.5,-33.2 55,-33.2 29.3,0 54,10.4 54,41.4 l 0,50.4 -0.1,0 z m -55,-30.6 c -22.4,0.7 -36.3,4.8 -36.3,19.5 0,9.5 7.6,19.9 26.9,19.9 25.9,0 39.7,-14.1 39.7,-37.2 l 0,-2.5 c -9,-0.1 -20.2,0 -30.3,0.3"
   id="path29"
   inkscape:connector-curvature="0"
   style="fill:#faab18" />
<path
   d="m 450.1,406.6 c 1.3,22.4 16.8,35.6 38,35.6 14.7,0 27.8,-6 32.2,-19 l 25.4,0 c -4.9,26.4 -33.1,35.4 -57.2,35.4 -44,0 -63.5,-24.2 -63.5,-56.9 0,-36 20.2,-59.6 63.9,-59.6 34.8,0 60.3,18.2 60.3,58 l 0,6.6 -99.1,0 0,-0.1 z m 73.2,-16.4 c -1,-23.1 -17.6,-31.7 -35.4,-31.7 -19.2,0 -34.5,9.7 -37.2,31.7 l 72.6,0 z"
   id="path31"
   inkscape:connector-curvature="0"
   style="fill:#ee3e42" />
<path
   d="m 549.2,298.7 24.7,0 0,62 c 12.1,-14.4 28.7,-18.6 45.1,-18.6 27.5,0 58,18.5 58,58.6 0,33.5 -24.3,58 -58.5,58 -17.9,0 -34.7,-6.4 -45.1,-19.1 0,5.1 -0.3,10.2 -0.8,15 l -24.2,0 c 0.4,-7.8 0.8,-17.6 0.8,-25.5 l 0,-130.4 z m 63.2,143 c 22.9,0 38.6,-16.5 38.6,-41.4 0,-24.9 -15.7,-41.4 -38.6,-41.4 -22.8,0 -38.6,16.5 -38.6,41.4 0,24.9 15.8,41.4 38.6,41.4"
   id="path33"
   inkscape:connector-curvature="0"
   style="fill:#0074bb" />
<polygon
   points="917.2,346.2 840.9,496 813.3,496 835.2,454.4 777.9,346.2 806.7,346.2 848.9,430.7 891.1,346.2 "
   id="polygon35"
   style="fill:#7dc142"
   transform="translate(-230.97162,111.8196)" />
</svg>