<?xml version="1.0" encoding="UTF-8" standalone="no"?>
<svg
   xmlns:dc="http://purl.org/dc/elements/1.1/"
   xmlns:cc="http://creativecommons.org/ns#"
   xmlns:rdf="http://www.w3.org/1999/02/22-rdf-syntax-ns#"
   xmlns:svg="http://www.w3.org/2000/svg"
   xmlns="http://www.w3.org/2000/svg"
   xmlns:sodipodi="http://sodipodi.sourceforge.net/DTD/sodipodi-0.dtd"
   xmlns:inkscape="http://www.inkscape.org/namespaces/inkscape"
   width="1302.9813"
   height="1302.9766"
   viewBox="0 0 266.85057 266.89401"
   id="svg2"
   version="1.1"
   inkscape:version="0.91 r13725"
   sodipodi:docname="facebook.svg">
  <metadata
     id="metadata10">
    <rdf:RDF>
      <cc:Work
         rdf:about="">
        <dc:format>image/svg+xml</dc:format>
        <dc:type
           rdf:resource="http://purl.org/dc/dcmitype/StillImage" />
        <dc:title></dc:title>
      </cc:Work>
    </rdf:RDF>
  </metadata>
  <defs
     id="defs8" />
  <sodipodi:namedview
     pagecolor="#ffffff"
     bordercolor="#666666"
     borderopacity="1"
     objecttolerance="10"
     gridtolerance="10"
     guidetolerance="10"
     inkscape:pageopacity="0"
     inkscape:pageshadow="2"
     inkscape:window-width="695"
     inkscape:window-height="480"
     id="namedview6"
     showgrid="false"
     fit-margin-top="0"
     fit-margin-left="0"
     fit-margin-right="0"
     fit-margin-bottom="0"
     inkscape:zoom="0.096681688"
     inkscape:cx="646.60625"
     inkscape:cy="621.61703"
     inkscape:window-x="1571"
     inkscape:window-y="396"
     inkscape:window-maximized="0"
     inkscape:current-layer="svg2" />
  <path
     d="M 252.12139,0 14.687393,0 C 6.5503929,0 -0.04260709,6.594 -0.04260709,14.73 l 0,237.434 c 0,8.135 6.59399999,14.73 14.73000009,14.73 l 127.825997,0 0,-103.355 -34.781,0 0,-40.28 34.781,0 0,-29.705 c 0,-34.473 21.055,-53.244 51.807,-53.244 14.73,0 27.391,1.097 31.08,1.587 l 0,36.026 -21.328,0.01 c -16.725,0 -19.963,7.947 -19.963,19.609 l 0,25.717 39.887,0 -5.193,40.28 -34.693,0 0,103.355 68.012,0 c 8.135,0 14.73,-6.596 14.73,-14.73 l 0,-237.434 C 266.85139,6.593 260.25639,0 252.12139,0 Z"
     id="path4"
     inkscape:connector-curvature="0"
     style="fill:#ffffff" />
</svg>
