<?xml version="1.0" encoding="UTF-8" standalone="no"?>
<!-- Generator: Adobe Illustrator 18.1.1, SVG Export Plug-In . SVG Version: 6.00 Build 0)  -->

<svg
   xmlns:dc="http://purl.org/dc/elements/1.1/"
   xmlns:cc="http://creativecommons.org/ns#"
   xmlns:rdf="http://www.w3.org/1999/02/22-rdf-syntax-ns#"
   xmlns:svg="http://www.w3.org/2000/svg"
   xmlns="http://www.w3.org/2000/svg"
   xmlns:sodipodi="http://sodipodi.sourceforge.net/DTD/sodipodi-0.dtd"
   xmlns:inkscape="http://www.inkscape.org/namespaces/inkscape"
   version="1.1"
   id="Calque_1"
   x="0px"
   y="0px"
   viewBox="-243 366.9 50.700001 43.099998"
   enable-background="new -243 366.9 108 108"
   xml:space="preserve"
   inkscape:version="0.91 r13725"
   sodipodi:docname="gmail.svg"
   width="50.700001"
   height="43.099998"><metadata
   id="metadata15"><rdf:RDF><cc:Work
       rdf:about=""><dc:format>image/svg+xml</dc:format><dc:type
         rdf:resource="http://purl.org/dc/dcmitype/StillImage" /><dc:title></dc:title></cc:Work></rdf:RDF></metadata><defs
   id="defs13">
	
	
	
</defs><sodipodi:namedview
   pagecolor="#ffffff"
   bordercolor="#666666"
   borderopacity="1"
   objecttolerance="10"
   gridtolerance="10"
   guidetolerance="10"
   inkscape:pageopacity="0"
   inkscape:pageshadow="2"
   inkscape:window-width="701"
   inkscape:window-height="480"
   id="namedview11"
   showgrid="false"
   fit-margin-top="0"
   fit-margin-left="0"
   fit-margin-right="0"
   fit-margin-bottom="0"
   inkscape:zoom="2.1851852"
   inkscape:cx="25.3"
   inkscape:cy="57.852548"
   inkscape:window-x="925"
   inkscape:window-y="355"
   inkscape:window-maximized="0"
   inkscape:current-layer="Calque_1" />
<path
   style="fill:#fff"
   inkscape:connector-curvature="0"
   id="path5"
   d="m -193.8,377.59999 c -7.5,5.4 -15.3,10.7 -22.8,16.1 -0.9,0.7 -1.5,0.6 -2.4,0 -7.5,-5.4 -15,-10.8 -22.6,-16.2 -0.3,-0.2 -1,-0.5 -1,-0.6 0,11 0,21.9 0,32.9 0,0 -0.1,0.2 -0.1,0.2 l 50.1,0 c 0,-11 0,-21.9 0,-32.8 -1,-0.1 -0.9,0.2 -1.2,0.4 z" /><path
   style="fill:#fff"
   inkscape:connector-curvature="0"
   id="path7"
   d="m -242.7,366.89999 c -0.1,0 -0.2,0 -0.3,0 8.2,5.9 16.4,11.8 24.6,17.7 0.6,0.4 1,0.3 1.5,-0.1 4.4,-3.2 8.9,-6.4 13.4,-9.6 3.7,-2.7 7.5,-5.3 11.2,-8 -0.1,0 -0.2,0 -0.3,0 l -50.1,0 0,0 z" />
</svg>