<?xml version="1.0" encoding="UTF-8" standalone="no"?>
<!-- Generator: Adobe Illustrator 19.1.0, SVG Export Plug-In . SVG Version: 6.00 Build 0)  -->

<svg
   xmlns:dc="http://purl.org/dc/elements/1.1/"
   xmlns:cc="http://creativecommons.org/ns#"
   xmlns:rdf="http://www.w3.org/1999/02/22-rdf-syntax-ns#"
   xmlns:svg="http://www.w3.org/2000/svg"
   xmlns="http://www.w3.org/2000/svg"
   xmlns:sodipodi="http://sodipodi.sourceforge.net/DTD/sodipodi-0.dtd"
   xmlns:inkscape="http://www.inkscape.org/namespaces/inkscape"
   version="1.1"
   id="Layer_1"
   x="0px"
   y="0px"
   viewBox="-9 -9 30 30"
   xml:space="preserve"
   inkscape:version="0.91 r13725"
   sodipodi:docname="google.svg"
   width="30"
   height="30"><metadata
   id="metadata23"><rdf:RDF><cc:Work
       rdf:about=""><dc:format>image/svg+xml</dc:format><dc:type
         rdf:resource="http://purl.org/dc/dcmitype/StillImage" /><dc:title></dc:title></cc:Work></rdf:RDF></metadata><defs
   id="defs21" /><sodipodi:namedview
   pagecolor="#ffffff"
   bordercolor="#666666"
   borderopacity="1"
   objecttolerance="10"
   gridtolerance="10"
   guidetolerance="10"
   inkscape:pageopacity="0"
   inkscape:pageshadow="2"
   inkscape:window-width="701"
   inkscape:window-height="480"
   id="namedview19"
   showgrid="false"
   fit-margin-top="0"
   fit-margin-left="0"
   fit-margin-right="0"
   fit-margin-bottom="0"
   inkscape:zoom="3.5757576"
   inkscape:cx="15"
   inkscape:cy="14.720339"
   inkscape:window-x="0"
   inkscape:window-y="0"
   inkscape:window-maximized="0"
   inkscape:current-layer="Layer_1" />
<style
   type="text/css"
   id="style3">
	.st0{fill:none;}
	.st1{fill:#fff;}
	.st2{fill:#fff;}
	.st3{fill:#fff;}
	.st4{fill:#fff;}
	.st5{fill:none;}
</style>
<g
   id="g5"
   transform="translate(-18,-18)">
	<g
   id="g7">
		<path
   class="st1"
   d="m 38.4,24.3 c 0,-1.1 -0.1,-2.1 -0.3,-3.1 l -14.1,0 0,5.8 8.1,0 c -0.3,1.9 -1.4,3.5 -3,4.6 l 0,3.8 4.9,0 c 2.8,-2.6 4.4,-6.5 4.4,-11.1 z"
   id="path9"
   inkscape:connector-curvature="0"
   style="fill:#fff" />
		<path
   class="st2"
   d="m 24,39 c 4,0 7.4,-1.3 9.9,-3.6 L 29,31.6 c -1.3,0.9 -3,1.4 -5,1.4 -3.9,0 -7.2,-2.6 -8.4,-6.2 l -5,0 0,3.9 C 13.1,35.6 18.1,39 24,39 Z"
   id="path11"
   inkscape:connector-curvature="0"
   style="fill:#fff" />
		<path
   class="st3"
   d="m 10.6,30.7 5,-3.9 c -0.3,-0.9 -0.5,-1.9 -0.5,-2.9 0,-1 0.2,-2 0.5,-2.9 l 0,-3.9 -5,0 c -1,2 -1.6,4.3 -1.6,6.7 0,2.4 0.6,4.9 1.6,6.9 z"
   id="path13"
   inkscape:connector-curvature="0"
   style="fill:#fff" />
		<path
   class="st4"
   d="m 24,15 c 2.2,0 4.2,0.8 5.7,2.2 L 34,12.9 C 31.4,10.5 28,9 24,9 18.1,9 13.1,12.4 10.6,17.3 l 5,3.9 C 16.8,17.6 20.1,15 24,15 Z"
   id="path15"
   inkscape:connector-curvature="0"
   style="fill:#fff" />
		<path
   class="st5"
   d="M 9,24 9,9 39,9 39,39 9,39 9,24 Z"
   id="path17"
   inkscape:connector-curvature="0"
   style="fill:none" />
	</g>
</g>
</svg>