<?xml version="1.0" encoding="UTF-8" standalone="no"?>
<svg
   xmlns:dc="http://purl.org/dc/elements/1.1/"
   xmlns:cc="http://creativecommons.org/ns#"
   xmlns:rdf="http://www.w3.org/1999/02/22-rdf-syntax-ns#"
   xmlns:svg="http://www.w3.org/2000/svg"
   xmlns="http://www.w3.org/2000/svg"
   version="1.1"
   id="svg2"
   viewBox="0 0 564.89796 521.90119"
   height="147.29211mm"
   width="159.42676mm">
  <defs
     id="defs4" />
  <metadata
     id="metadata7">
    <rdf:RDF>
      <cc:Work
         rdf:about="">
        <dc:format>image/svg+xml</dc:format>
        <dc:type
           rdf:resource="http://purl.org/dc/dcmitype/StillImage" />
        <dc:title></dc:title>
      </cc:Work>
    </rdf:RDF>
  </metadata>
  <g
     transform="translate(-50.984098,-357.89467)"
     id="layer1"
	 fill="#fff">
    <g
       transform="translate(33.335034,182.83762)"
       id="g4163">
      <path
         id="path4177"
         d="m 50.64658,695.59636 c -2.738125,-0.6452 -5.379941,-1.57656 -5.8707,-2.06968 -0.490761,-0.49313 113.60063,-70.6013 253.53644,-155.79597 139.9358,-85.19465 254.74527,-155.72422 255.13213,-156.7324 0.38687,-1.00816 0.13357,-2.74095 -0.56288,-3.85062 -0.69646,-1.10969 -20.88362,-16.18554 -44.86037,-33.5019 -23.97674,-17.31638 -43.75051,-31.95359 -43.9417,-32.52715 -0.19119,-0.57356 3.17422,-4.53336 7.47867,-8.79955 l 7.82629,-7.75673 42.49526,30.65124 c 23.37239,16.85819 44.65324,32.73593 47.29077,35.28387 6.08928,5.88247 10.23327,13.96774 11.96767,23.34996 1.81849,9.83714 1.90518,267.45138 0.0933,277.00586 -2.73166,14.40399 -11.70485,26.08095 -24.73575,32.18908 l -7.12067,3.33772 -246.875,0.19469 C 152.33871,696.69315 53.674687,696.3099 50.646579,695.59636 Z M 27.045847,679.73785 c -9.592644,-13.0678 -8.876755,-1.31024 -9.299505,-152.73276 -0.274092,-98.17585 0.01685,-137.68441 1.053687,-143.08334 1.884477,-9.81271 6.004044,-17.61222 12.657225,-23.96375 8.400602,-8.01972 244.539186,-177.88384 252.283046,-181.47749 10.20129,-4.73406 23.3505,-4.54422 33.37195,0.48182 4.02225,2.01727 27.13364,17.99267 51.35864,35.50088 l 44.04543,31.83313 -7.78455,7.85438 c -4.28151,4.31989 -8.24561,7.85437 -8.80911,7.85437 -0.5635,0 -20.26725,-13.8911 -43.78611,-30.86912 -24.00256,-17.32719 -44.70294,-31.39298 -47.18696,-32.06328 -2.43398,-0.65679 -6.43235,-0.81766 -8.88528,-0.35749 -3.19212,0.59884 -39.03869,25.79108 -126.10747,88.62578 -66.9062,48.28401 -121.55132,88.35161 -121.433606,89.03911 0.117713,0.6875 54.828336,34.51457 121.579156,75.17126 66.75082,40.6567 121.89308,74.44923 122.53837,75.09451 1.11239,1.11239 -253.724176,157.39594 -258.825863,158.73007 -1.546634,0.40445 -3.571411,-1.28203 -6.76905,-5.63808 z M 247.80684,402.93701 c -39.94665,-39.95536 -51.55685,-52.26017 -51.55685,-54.6414 0,-2.29252 4.69585,-7.76916 18.48361,-21.55691 10.96812,-10.96813 19.45887,-18.48361 20.8822,-18.48361 1.46646,0 14.81395,12.38175 34.34627,31.8612 l 31.94768,31.86119 81.85404,-81.86119 c 52.82721,-52.83183 82.72602,-81.8612 84.31297,-81.8612 2.86106,0 40.67323,37.21114 40.67323,40.02672 0,2.92269 -203.93843,206.22328 -206.87028,206.22328 -1.64755,0 -20.31219,-17.80005 -54.07287,-51.56808 z"
         style="fill-opacity:1" />
      <path
         id="path4175"
         d="m 50.917252,695.23382 c -3.276755,-0.88139 -6.173225,-1.8278 -6.436601,-2.10313 -0.263376,-0.27533 113.790859,-70.06379 253.453869,-155.08545 139.663,-85.02167 254.4941,-155.4748 255.18022,-156.5625 0.8408,-1.33296 0.80948,-2.69075 -0.0961,-4.16515 -0.73895,-1.20313 -21.14655,-16.49607 -45.35024,-33.98434 l -44.00671,-31.79683 7.84039,-7.91072 c 4.31222,-4.35088 8.55495,-7.63651 9.42829,-7.30138 4.65778,1.78736 86.22128,61.94652 90.3572,66.64518 2.68346,3.04857 6.02277,8.59982 7.4207,12.33612 2.50018,6.68232 2.54168,9.08623 2.54168,147.21421 0,155.22082 0.51885,145.20999 -8.13718,157.00187 -2.42203,3.29945 -7.07192,7.7112 -10.3331,9.8039 -12.72999,8.16882 3.93845,7.6881 -263.35484,7.59513 -193.12789,-0.0671 -243.763824,-0.4109 -248.507611,-1.68691 z M 29.090877,681.72149 c -2.175545,-2.25027 -5.532866,-7.4664 -7.460714,-11.5914 l -3.505176,-7.5 0,-140 0,-140 2.926214,-7.25139 c 1.810074,-4.4855 5.385965,-9.80332 9.375,-13.94186 6.037784,-6.26406 238.755959,-175.07552 250.202389,-181.49432 9.74705,-5.46586 27.50906,-5.87119 37.32111,-0.85168 2.15891,1.10443 24.31006,16.68709 49.22477,34.62814 l 45.2995,32.6201 -7.76338,7.833 c -4.26987,4.30816 -8.20653,7.83301 -8.74814,7.83301 -0.54163,0 -19.40163,-13.31189 -41.91111,-29.58196 -22.50949,-16.27008 -42.61385,-30.61172 -44.67635,-31.87033 -6.50969,-3.97241 -14.18865,-3.0749 -22.67007,2.64967 -19.25896,12.99892 -238.546376,172.06856 -238.562032,173.05132 -0.0099,0.61802 54.790262,34.5012 121.778022,75.29592 66.98775,40.79473 122.25418,74.63048 122.81425,75.19056 0.80988,0.80987 -252.480217,156.30643 -258.158835,158.48553 -0.84145,0.32289 -3.309902,-1.25405 -5.485448,-3.50431 z M 247.80684,402.93701 c -33.66489,-33.67222 -51.55685,-52.43898 -51.55685,-54.07762 0,-1.57185 7.179,-9.67734 19.21301,-21.69258 14.84261,-14.81942 19.74746,-19.01293 21.5625,-18.43534 1.29222,0.41122 16.40701,14.81526 33.58844,32.00897 l 31.23895,31.2613 81.90825,-81.87332 c 51.10267,-51.08088 82.80487,-81.87333 84.29225,-81.87333 1.39723,0 10.05435,7.60915 20.9153,18.38346 14.20721,14.09386 18.5313,19.12593 18.5313,21.56538 0,2.54982 -20.17598,23.35675 -101.56537,104.74154 -66.95041,66.94663 -102.41833,101.55962 -104.06813,101.55962 -1.63013,0 -20.47952,-17.98064 -54.05965,-51.56808 z"
         style="fill-opacity:1" />
      <path
         id="path4173"
         d="m 52.589623,695.64526 c -3.04445,-0.59724 -6.041362,-1.5919 -6.659807,-2.21034 -0.665924,-0.66593 2.610687,-3.39653 8.035363,-6.69638 C 269.2516,555.77915 547.7417,386.06054 550.31249,384.25249 c 1.89062,-1.3297 3.4375,-3.49125 3.4375,-4.80345 0,-2.99583 -3.03579,-5.36914 -51.02277,-39.88836 l -39.02076,-28.06942 7.81803,-7.88813 c 4.29991,-4.33848 8.48303,-7.63295 9.29583,-7.32105 4.50792,1.72985 87.23717,62.85191 90.96443,67.20637 2.44487,2.8563 5.58406,8.23706 6.97597,11.95726 2.49394,6.66564 2.52589,8.82988 2.1975,148.84919 l -0.33323,142.08519 -3.48032,6.60544 c -6.48298,12.30434 -17.11053,20.15545 -30.79648,22.75093 -8.35244,1.58402 -485.668675,1.49585 -493.758567,-0.0912 z M 29.129945,681.69259 c -2.123253,-2.23438 -5.186722,-6.59375 -6.807709,-9.6875 l -2.947249,-5.625 -0.333234,-142.08519 -0.333233,-142.0852 2.683259,-7.17165 c 1.799639,-4.80997 4.790833,-9.29887 9.083235,-13.63129 9.008503,-9.09246 247.031806,-180.41949 254.707096,-183.33587 8.08984,-3.0739 21.56028,-3.06844 29.6674,0.012 5.52053,2.09764 93.91555,64.66275 95.90374,67.8797 0.75929,1.22857 -12.81474,16.0425 -14.69975,16.0425 -0.49485,0 -17.24595,-11.81564 -37.22465,-26.25696 -53.24985,-38.49093 -51.68853,-37.49304 -58.66315,-37.49304 -4.37845,0 -7.37769,0.92917 -11.48349,3.5576 -8.2325,5.27024 -236.414088,170.02675 -239.145133,172.67265 -2.280483,2.20937 -2.265131,2.31196 0.625,4.17657 1.629601,1.05137 56.681663,34.61375 122.337913,74.58308 65.65625,39.96934 119.78137,73.0697 120.27805,73.55636 0.72571,0.71108 -257.365842,158.95374 -259.251301,158.95374 -0.294985,0 -2.273542,-1.82813 -4.396794,-4.0625 z M 247.80684,402.93701 c -33.66489,-33.67222 -51.55685,-52.43898 -51.55685,-54.07762 0,-1.57185 7.179,-9.67734 19.21301,-21.69258 14.84261,-14.81942 19.74746,-19.01293 21.5625,-18.43534 1.29222,0.41122 16.40701,14.81526 33.58844,32.00897 l 31.23895,31.2613 81.90825,-81.87332 c 51.10267,-51.08088 82.80487,-81.87333 84.29225,-81.87333 1.39723,0 10.05435,7.60915 20.9153,18.38346 14.20721,14.09386 18.5313,19.12593 18.5313,21.56538 0,2.54982 -20.17598,23.35675 -101.56537,104.74154 -66.95041,66.94663 -102.41833,101.55962 -104.06813,101.55962 -1.63013,0 -20.47952,-17.98064 -54.05965,-51.56808 z"
         style="fill-opacity:1" />
      <path
         id="path4171"
         d="m 53.933285,695.73219 c -3.680437,-0.54203 -7.226849,-1.52065 -7.880918,-2.17473 -0.752286,-0.75228 91.491873,-57.58145 251.066703,-154.6755 138.74075,-84.41745 253.31412,-154.47923 254.60747,-155.69285 4.9201,-4.61676 2.56655,-6.77165 -43.59082,-39.91121 l -44.36428,-31.85219 7.78553,-7.85536 c 4.28204,-4.32045 8.35534,-7.63655 9.05178,-7.3691 2.89617,1.11219 84.15441,60.22295 88.50807,64.38461 2.60802,2.49299 6.26427,7.62905 8.125,11.41347 l 3.38317,6.88076 0,143.75 0,143.75 -3.33227,6.25 c -4.50116,8.44236 -12.6115,16.02169 -21.66773,20.24906 l -7.5,3.50094 -243.75,0.1688 c -134.0625,0.0928 -246.761269,-0.27467 -250.441705,-0.8167 z M 28.928586,681.39253 c -2.152288,-2.45133 -5.182329,-6.83194 -6.733425,-9.73469 l -2.820174,-5.27775 0,-143.75 0,-143.75 3.384184,-6.89061 c 1.861301,-3.78984 5.280695,-8.72879 7.598651,-10.97544 6.023171,-5.83789 245.378948,-178.43834 252.142168,-181.82077 8.14346,-4.07272 26.86807,-4.06957 35,0.006 5.1846,2.59835 88.30026,61.94382 92.45812,66.01608 1.60435,1.57131 0.9046,2.73371 -5.60655,9.31352 -4.09182,4.13497 -8.16902,7.23824 -9.06046,6.89618 -0.89143,-0.34208 -19.46223,-13.49686 -41.26844,-29.23285 -21.80622,-15.73598 -41.61642,-29.80715 -44.02267,-31.26926 -6.68572,-4.06245 -14.31049,-3.58127 -22.10164,1.39477 -15.55814,9.93666 -240.268714,172.94375 -239.950808,174.0625 0.195361,0.6875 55.262998,34.71875 122.372528,75.625 67.10953,40.90625 122.293,74.66097 122.62994,75.01049 0.51334,0.5325 -255.917784,157.40062 -259.056562,158.4742 -0.578386,0.19784 -2.812574,-1.64593 -4.964862,-4.09725 z M 247.84754,402.96288 c -34.55493,-34.51787 -51.59755,-52.39197 -51.59755,-54.1149 0,-2.91259 37.16802,-40.59289 40.04101,-40.59289 0.9538,0 16.10039,14.33635 33.65909,31.85855 l 31.9249,31.85855 81.8972,-81.85855 c 52.21745,-52.19281 82.77845,-81.85855 84.3289,-81.85855 1.46595,0 9.77236,7.34068 20.91528,18.48361 13.83974,13.83973 18.48362,19.25978 18.48362,21.57294 0,2.42732 -21.76728,24.8505 -101.58053,104.64139 -65.40832,65.39001 -102.45186,101.55206 -104.02745,101.55206 -1.55545,0 -21.24526,-18.77816 -54.04447,-51.54221 z"
         style="fill-opacity:1" />
      <path
         id="path4169"
         d="m 49.374987,694.86989 c -1.375,-0.3341 -2.936364,-1.01735 -3.469699,-1.51833 -0.533334,-0.50098 112.529162,-69.98949 251.250002,-154.41893 138.72083,-84.42944 253.20407,-154.36464 254.4072,-155.41154 5.46632,-4.75655 4.25843,-5.87924 -42.77267,-39.75598 l -44.96016,-32.38502 7.9868,-8.01506 7.98681,-8.01508 21.03585,15.13665 c 74.32674,53.48285 72.61888,52.03633 77.80594,65.89999 2.58266,6.90276 2.60493,8.15289 2.60493,146.2435 0,137.43572 -0.034,139.37214 -2.56719,146.14265 -3.22098,8.60883 -12.09075,18.59286 -20.42331,22.98899 l -6.3845,3.36836 -250,0.17362 c -137.5,0.0955 -251.125003,-0.0997 -252.500003,-0.43382 z M 28.232391,680.54178 c -2.454323,-2.86733 -5.591905,-8.23218 -6.972404,-11.9219 -2.458139,-6.56996 -2.51,-9.58435 -2.51,-145.89314 0,-154.98643 -0.507313,-145.67095 8.588522,-157.70565 3.56147,-4.71218 31.207083,-25.2721 127.044251,-94.48221 67.37073,-48.6527 125.02348,-89.68362 128.11723,-91.17982 7.802,-3.77321 21.39362,-4.57782 30.25366,-1.791 5.04275,1.58614 17.40079,9.79314 48.703,32.34375 23.0701,16.62005 43.74096,31.62453 45.93526,33.34328 l 3.98963,3.125 -7.92577,7.82622 -7.92576,7.82624 -43.70251,-31.57623 -43.70251,-31.57623 -8.125,0 -8.125,0 -122.16487,88.125 c -67.19067,48.46875 -122.151448,88.6875 -122.135059,89.375 0.01639,0.6875 55.436619,34.93517 123.156079,76.10595 l 123.12628,74.85595 -3.49122,2.13098 C 208.00845,579.74283 33.559888,685.75509 33.196043,685.75509 c -0.275686,0 -2.50933,-2.34599 -4.963652,-5.21331 z M 248.43015,403.56759 c -28.05868,-28.01563 -51.35333,-52.26125 -51.7659,-53.87916 -0.64139,-2.51528 1.94439,-5.64066 17.83969,-21.5625 13.91737,-13.94062 19.365,-18.62084 21.67407,-18.62084 2.36069,0 10.52105,7.40484 34.78289,31.5625 l 31.69861,31.5625 81.48274,-82.22703 c 44.8155,-45.22487 82.28557,-82.20924 83.26682,-82.1875 2.9362,0.0651 40.09092,37.71248 40.09092,40.62257 0,3.4652 -202.14335,205.66696 -205.60757,205.66696 -1.55403,0 -21.05666,-18.58161 -53.46227,-50.9375 z"
         style="fill-opacity:1" />
      <path
         id="path4167"
         d="M 48.341647,694.13228 C 44.917946,692.66909 52.578446,687.8927 295.21665,540.20363 432.94124,456.3734 547.42396,386.62518 549.62271,385.20756 c 5.18011,-3.33979 5.96003,-6.51167 2.43491,-9.90277 -1.52921,-1.47109 -21.98963,-16.45595 -45.4676,-33.2997 l -42.68721,-30.625 7.92039,-7.98524 7.9204,-7.98522 42.30856,30.48522 c 23.26971,16.76689 44.12835,32.08024 46.35251,34.02968 2.22418,1.94945 5.88364,7.28137 8.13214,11.84872 l 4.08818,8.30428 0,142.52627 0,142.52629 -3.50045,7.12826 c -4.38292,8.92528 -13.7864,17.53584 -22.8569,20.92955 -6.83845,2.55859 -7.69145,2.567 -254.62704,2.51081 -190.7341,-0.0434 -248.578929,-0.40397 -251.298953,-1.56643 z M 28.699048,681.1311 c -2.232956,-2.5432 -5.244352,-7.18382 -6.691991,-10.3125 -2.627444,-5.67851 -2.63207,-5.939 -2.63207,-148.2148 l 0,-142.52627 3.992844,-8.11063 c 2.196063,-4.46083 5.571063,-9.59982 7.5,-11.41997 5.613751,-5.29715 242.795069,-176.13923 250.382159,-180.35067 6.31568,-3.50571 7.84108,-3.81589 18.75,-3.81272 10.10088,0.003 12.71537,0.44855 17.5,2.98269 3.09375,1.63858 25.49976,17.32483 49.79115,34.85834 l 44.16615,31.87909 -7.82039,7.89054 c -4.30123,4.33979 -8.26296,7.617 -8.80389,7.28269 -0.54091,-0.3343 -20.47259,-14.65098 -44.29259,-31.81481 -28.0844,-20.23661 -44.47028,-31.27326 -46.61227,-31.39549 -6.36431,-0.36319 -10.82996,0.39864 -13.92816,2.3761 -4.63969,2.96135 -240.352612,172.9026 -242.255281,174.65808 -1.298832,1.19836 23.554127,16.83977 122.244131,76.93536 102.09945,62.17171 123.47992,75.65162 121.63027,76.68514 -1.23426,0.68966 -59.80705,36.30439 -130.16172,79.14387 -70.354683,42.83947 -128.093287,77.88995 -128.308013,77.88995 -0.214725,0 -2.217374,-2.0808 -4.450329,-4.62399 z M 248.43015,403.56759 c -28.05868,-28.01563 -51.35333,-52.26125 -51.7659,-53.87916 -0.64139,-2.51528 1.94439,-5.64066 17.83969,-21.5625 11.69421,-11.71374 19.5264,-18.62084 21.1148,-18.62084 1.63317,0 13.55587,11.0375 33.75625,31.25 17.17718,17.1875 31.79223,31.25 32.4779,31.25 0.68565,0 38.16456,-36.90218 83.28646,-82.00482 71.64552,-71.61498 82.33729,-81.84033 84.38772,-80.70641 1.29135,0.71413 10.43907,9.43338 20.32824,19.37609 15.35714,15.44028 17.87039,18.50676 17.22681,21.0189 -1.07136,4.18191 -202.07162,204.81624 -205.1898,204.81624 -1.5539,0 -21.05812,-18.58317 -53.46217,-50.9375 z"
         style="fill-opacity:1" />
      <path
         id="path4165"
         d="m 48.408749,694.13621 c -3.342788,-1.45248 5.59147,-7.0203 250.857721,-156.33422 139.87818,-85.15546 254.62345,-155.60859 254.9895,-156.5625 0.36605,-0.95392 0.34093,-2.58038 -0.0559,-3.61434 -0.39678,-1.03397 -20.86761,-16.42071 -45.49076,-34.19277 l -44.76937,-32.31283 7.8924,-7.82225 7.8924,-7.82225 44.82509,32.34229 c 36.60179,26.40897 45.57238,33.45772 48.89849,38.42259 8.24505,12.3073 7.87866,4.5522 7.51035,158.9706 l -0.33371,139.91956 -3.50045,7.12826 c -4.38292,8.92528 -13.7864,17.53584 -22.8569,20.92955 -6.83845,2.55859 -7.69145,2.567 -254.62704,2.51081 -190.41024,-0.0434 -248.568014,-0.40503 -251.231851,-1.5625 z m -19.520255,-12.9833 c -2.128992,-2.58283 -5.140482,-7.24458 -6.692201,-10.35945 l -2.821306,-5.66337 -0.333736,-139.91956 c -0.368316,-154.41704 -0.73519,-146.6509 7.510347,-158.98199 3.483948,-5.2102 21.799784,-18.90298 126.573392,-94.62526 67.375,-48.69346 125.59375,-90.03873 129.375,-91.87838 9.11312,-4.4337 24.98406,-4.76718 33.79201,-0.71004 3.11686,1.4357 25.78815,17.13413 50.38065,34.88541 l 44.71362,32.27504 -7.76786,7.83753 -7.76786,7.83754 -5.11278,-3.58005 c -2.81203,-1.96904 -22.26903,-15.99242 -43.23778,-31.16307 -22.15559,-16.02932 -40.08845,-28.13079 -42.8125,-28.89077 -3.2427,-0.90468 -6.1323,-0.90894 -9.375,-0.0138 -5.17319,1.42798 -248.076826,176.04454 -247.857074,178.17744 0.07084,0.6875 55.206984,34.71875 122.524784,75.625 67.3178,40.90625 122.42385,74.73779 122.45789,75.1812 0.0466,0.60674 -229.79832,141.1423 -255.120903,155.99022 l -4.557799,2.67247 -3.870894,-4.69607 z M 248.43191,402.31208 c -28.70006,-28.70617 -52.18192,-53.04133 -52.18192,-54.07814 0,-2.89023 36.45922,-38.72885 39.39951,-38.72885 1.59297,0 13.77929,11.29183 33.72549,31.25 17.17718,17.1875 31.79958,31.25 32.49422,31.25 0.69465,0 37.82224,-36.5625 82.50578,-81.25 53.74452,-53.7493 82.09547,-81.25 83.76202,-81.25 1.58096,0 9.4429,6.93523 21.10903,18.62084 15.9045,15.93106 18.48095,19.04576 17.83618,21.5625 -0.91453,3.56981 -201.95435,204.81666 -204.60595,204.81666 -1.02435,0 -25.34431,-23.48686 -54.04436,-52.19301 z"
         style="fill-opacity:1" />
    </g>
  </g>
</svg>
