<?xml version="1.0" encoding="UTF-8" standalone="no"?>
<!-- Created with Inkscape (http://www.inkscape.org/) -->

<svg
   xmlns:dc="http://purl.org/dc/elements/1.1/"
   xmlns:cc="http://creativecommons.org/ns#"
   xmlns:rdf="http://www.w3.org/1999/02/22-rdf-syntax-ns#"
   xmlns:svg="http://www.w3.org/2000/svg"
   xmlns="http://www.w3.org/2000/svg"
   xmlns:sodipodi="http://sodipodi.sourceforge.net/DTD/sodipodi-0.dtd"
   xmlns:inkscape="http://www.inkscape.org/namespaces/inkscape"
   width="147.93796"
   height="262.54367"
   id="svg5264"
   version="1.1"
   inkscape:version="0.91 r13725"
   sodipodi:docname="grubhub.svg">
  <defs
     id="defs5266">
    <clipPath
       clipPathUnits="userSpaceOnUse"
       id="clipPath4790">
      <path
         inkscape:connector-curvature="0"
         d="M 0,0 792,0 792,612 0,612 0,0 Z"
         id="path4792" />
    </clipPath>
  </defs>
  <sodipodi:namedview
     id="base"
     pagecolor="#ffffff"
     bordercolor="#666666"
     borderopacity="1.0"
     inkscape:pageopacity="0.0"
     inkscape:pageshadow="2"
     inkscape:zoom="0.39975011"
     inkscape:cx="586.83329"
     inkscape:cy="-43.929827"
     inkscape:document-units="px"
     inkscape:current-layer="layer1"
     showgrid="false"
     fit-margin-left="0.5"
     fit-margin-bottom="0.5"
     fit-margin-top="0.5"
     fit-margin-right="0.5"
     inkscape:window-width="1049"
     inkscape:window-height="1024"
     inkscape:window-x="865"
     inkscape:window-y="-9"
     inkscape:window-maximized="0" />
  <metadata
     id="metadata5269">
    <rdf:RDF>
      <cc:Work
         rdf:about="">
        <dc:format>image/svg+xml</dc:format>
        <dc:type
           rdf:resource="http://purl.org/dc/dcmitype/StillImage" />
        <dc:title></dc:title>
      </cc:Work>
    </rdf:RDF>
  </metadata>
  <g
     inkscape:label="Layer 1"
     inkscape:groupmode="layer"
     id="layer1"
     transform="translate(-561.44945,-393.82382)">
    <g
       id="g5429"
       transform="matrix(10.809836,0,0,-10.809836,608.28168,454.45589)"
       style="fill:#fff;fill-opacity:1">
      <path
         d="M 0,0 C -0.584,-0.896 -0.601,-2.824 -0.189,-5.543 0.222,-8.265 1.936,-8.739 2.468,-8.767 3.003,-8.8 5.162,-8.202 4.553,-3.189 3.945,1.822 1.62,1.343 1.62,1.343 0.759,1.217 0.59,0.894 0,0 m 3.258,5.122 c 0,0 4.467,0.624 4.575,0.387 0.455,-1.025 1.239,-14.762 1.239,-14.762 0,0 1.019,-5.461 -1.188,-7.228 -2.206,-1.768 -4.969,-2.206 -6.628,-2.146 -1.662,0.054 -2.882,0.092 -3.288,0.289 -0.638,0.311 -1.178,3.246 -0.322,3.827 1.04,0.705 4.076,-0.784 5.147,-0.23 1.07,0.558 2.006,1.488 1.879,3.01 -0.126,1.52 -0.155,1.862 -0.155,1.862 0,0 -0.81,-2.496 -2.832,-2.904 -2.019,-0.409 -4.733,1.092 -5.469,5.067 -0.736,3.974 -0.555,7.576 -0.143,8.997 0.41,1.419 1.389,3.929 3.668,3.889 C 2.022,5.143 3.259,3.101 3.259,3.101 L 3.258,5.122 Z"
         style="fill:#fff;fill-opacity:1;fill-rule:nonzero;stroke:none"
         id="path5431"
         inkscape:connector-curvature="0" />
    </g>
  </g>
</svg>
