<?xml version="1.0" encoding="UTF-8" standalone="no"?>
<svg
   xmlns:dc="http://purl.org/dc/elements/1.1/"
   xmlns:cc="http://creativecommons.org/ns#"
   xmlns:rdf="http://www.w3.org/1999/02/22-rdf-syntax-ns#"
   xmlns:svg="http://www.w3.org/2000/svg"
   xmlns="http://www.w3.org/2000/svg"
   xmlns:sodipodi="http://sodipodi.sourceforge.net/DTD/sodipodi-0.dtd"
   xmlns:inkscape="http://www.inkscape.org/namespaces/inkscape"
   version="1.1"
   width="422"
   height="174"
   id="svg2"
   inkscape:version="0.91 r13725"
   sodipodi:docname="hbo.svg">
  <metadata
     id="metadata13">
    <rdf:RDF>
      <cc:Work
         rdf:about="">
        <dc:format>image/svg+xml</dc:format>
        <dc:type
           rdf:resource="http://purl.org/dc/dcmitype/StillImage" />
        <dc:title></dc:title>
      </cc:Work>
    </rdf:RDF>
  </metadata>
  <defs
     id="defs11" />
  <sodipodi:namedview
     pagecolor="#ffffff"
     bordercolor="#666666"
     borderopacity="1"
     objecttolerance="10"
     gridtolerance="10"
     guidetolerance="10"
     inkscape:pageopacity="0"
     inkscape:pageshadow="2"
     inkscape:window-width="701"
     inkscape:window-height="480"
     id="namedview9"
     showgrid="false"
     fit-margin-top="0"
     fit-margin-left="0"
     fit-margin-right="0"
     fit-margin-bottom="0"
     inkscape:zoom="0.7014218"
     inkscape:cx="211"
     inkscape:cy="85.574324"
     inkscape:window-x="0"
     inkscape:window-y="0"
     inkscape:window-maximized="0"
     inkscape:current-layer="svg2" />
  <path
     d="m 206,1.8 c 13,0 50,7.1 50,43.5 0,29.3 -14,38 -25,40 -8,1.5 23,0 23,36.7 0,52 -45,50 -45,50 l -75,0 0,-170.2 z m -30,41.5 0,25.7 25,0 c 0,0 10,-1.2 10,-13.5 0,-12.3 -10,-12.2 -10,-12.2 z m 0,62.7 0,26 25,0 c 0,0 10,-1 10,-14 0,-12 -10,-12 -10,-12 z M 0,1.8 0,172 l 47,0 0,-63 30,0 0,63 47,0 0,-170.2 -47,0 0,64.2 -30,0 0,-64.2 z"
     id="path3"
     style="fill:#ffffff;fill-rule:nonzero"
     inkscape:connector-curvature="0" />
  <circle
     cx="335"
     cy="87"
     r="65"
     style="fill:none;stroke:#ffffff;stroke-width:44"
     id="circle5" />
  <circle
     cx="335"
     cy="87"
     r="35"
     id="circle7"
     style="fill:#ffffff" />
</svg>
