<?xml version="1.0" encoding="UTF-8" standalone="no"?>
<!-- Created with Inkscape (http://www.inkscape.org/) -->

<svg
   xmlns:dc="http://purl.org/dc/elements/1.1/"
   xmlns:cc="http://creativecommons.org/ns#"
   xmlns:rdf="http://www.w3.org/1999/02/22-rdf-syntax-ns#"
   xmlns:svg="http://www.w3.org/2000/svg"
   xmlns="http://www.w3.org/2000/svg"
   xmlns:sodipodi="http://sodipodi.sourceforge.net/DTD/sodipodi-0.dtd"
   xmlns:inkscape="http://www.inkscape.org/namespaces/inkscape"
   id="svg2"
   height="78.116585mm"
   width="25.695082mm"
   version="1.1"
   viewBox="0 0 91.046097 276.79031"
   inkscape:version="0.91 r13725"
   sodipodi:docname="imgur.svg">
  <defs
     id="defs11" />
  <sodipodi:namedview
     pagecolor="#ffffff"
     bordercolor="#666666"
     borderopacity="1"
     objecttolerance="10"
     gridtolerance="10"
     guidetolerance="10"
     inkscape:pageopacity="0"
     inkscape:pageshadow="2"
     inkscape:window-width="1404"
     inkscape:window-height="884"
     id="namedview9"
     showgrid="false"
     showborder="true"
     inkscape:zoom="0.8034021"
     inkscape:cx="49.239828"
     inkscape:cy="135.62258"
     inkscape:window-x="878"
     inkscape:window-y="125"
     inkscape:window-maximized="0"
     inkscape:current-layer="svg2"
     fit-margin-top="0"
     fit-margin-left="0"
     fit-margin-right="0"
     fit-margin-bottom="0" />
  <metadata
     id="metadata7">
    <rdf:RDF>
      <cc:Work
         rdf:about="">
        <dc:format>image/svg+xml</dc:format>
        <dc:type
           rdf:resource="http://purl.org/dc/dcmitype/StillImage" />
        <dc:title></dc:title>
      </cc:Work>
    </rdf:RDF>
  </metadata>
  <g
     id="g3363"
     transform="translate(-21.369028,-9.4410869)">
    <path
       style="fill:#fcfefb"
       d="M 55.615462,285.72504 C 40.443531,283.60802 31.253583,278.6376 26.006305,269.71083 l -3.506567,-5.96544 -0.357859,-61.03895 -0.357859,-61.03893 3.061535,-6.68727 c 5.264376,-11.49892 16.1322,-17.25231 35.645426,-18.8706 18.029915,-1.49527 36.67959,3.37029 43.739759,11.41138 7.78099,8.86205 7.77755,8.82681 7.38025,75.59901 l -0.36073,60.62536 -3.14139,5.62503 c -3.7849,6.77733 -12.615067,13.03498 -20.90091,14.81181 -8.869052,1.9019 -23.795206,2.63082 -31.592498,1.54281 z M 53.749921,97.616736 C 40.288606,93.348307 30.466753,84.821953 24.810337,72.494271 21.913409,66.180659 21.369028,63.313448 21.369028,54.369165 c 0,-8.840533 0.554349,-11.82926 3.300584,-17.794841 4.212196,-9.150051 14.004935,-18.950813 23.092168,-23.111085 8.661799,-3.9655031 22.500888,-5.2022591 31.295173,-2.796752 12.783384,3.496648 24.317357,13.506434 30.126707,26.145537 2.60331,5.663901 3.19416,8.875864 3.22965,17.557141 0.037,9.049906 -0.47263,11.736936 -3.43765,18.125106 -5.63008,12.130071 -16.047927,21.407076 -28.171614,25.086592 -7.103804,2.155992 -20.312684,2.173506 -27.054125,0.03587 z"
       id="path3367"
       inkscape:connector-curvature="0" />
    <path
       style="fill:#87c41d"
       d="M 53.749921,97.616736 C 40.288606,93.348307 30.466753,84.821953 24.810337,72.494271 21.913409,66.180659 21.369028,63.313448 21.369028,54.369165 c 0,-8.840533 0.554349,-11.82926 3.300584,-17.794841 4.212196,-9.150051 14.004935,-18.950813 23.092168,-23.111085 8.661799,-3.9655031 22.500888,-5.2022591 31.295173,-2.796752 12.783384,3.496648 24.317357,13.506434 30.126707,26.145537 2.60331,5.663901 3.19416,8.875864 3.22965,17.557141 0.037,9.049906 -0.47263,11.736936 -3.43765,18.125106 -5.63008,12.130071 -16.047927,21.407076 -28.171614,25.086592 -7.103804,2.155992 -20.312684,2.173506 -27.054125,0.03587 z"
       id="path3365"
       inkscape:connector-curvature="0" />
  </g>
</svg>
