<?xml version="1.0" encoding="UTF-8" standalone="no"?>
<!-- Generator: Adobe Illustrator 16.0.0, SVG Export Plug-In . SVG Version: 6.00 Build 0)  -->

<svg
   xmlns:dc="http://purl.org/dc/elements/1.1/"
   xmlns:cc="http://creativecommons.org/ns#"
   xmlns:rdf="http://www.w3.org/1999/02/22-rdf-syntax-ns#"
   xmlns:svg="http://www.w3.org/2000/svg"
   xmlns="http://www.w3.org/2000/svg"
   xmlns:sodipodi="http://sodipodi.sourceforge.net/DTD/sodipodi-0.dtd"
   xmlns:inkscape="http://www.inkscape.org/namespaces/inkscape"
   version="1.1"
   id="Capa_1"
   x="0px"
   y="0px"
   width="430.117"
   height="411.00201"
   viewBox="0 0 430.117 411.00201"
   xml:space="preserve"
   inkscape:version="0.91 r13725"
   sodipodi:docname="linkedin.svg"><metadata
   id="metadata40"><rdf:RDF><cc:Work
       rdf:about=""><dc:format>image/svg+xml</dc:format><dc:type
         rdf:resource="http://purl.org/dc/dcmitype/StillImage" /><dc:title></dc:title></cc:Work></rdf:RDF></metadata><defs
   id="defs38" /><sodipodi:namedview
   pagecolor="#ffffff"
   bordercolor="#666666"
   borderopacity="1"
   objecttolerance="10"
   gridtolerance="10"
   guidetolerance="10"
   inkscape:pageopacity="0"
   inkscape:pageshadow="2"
   inkscape:window-width="701"
   inkscape:window-height="480"
   id="namedview36"
   showgrid="false"
   fit-margin-top="0"
   fit-margin-left="0"
   fit-margin-right="0"
   fit-margin-bottom="0"
   inkscape:zoom="0.54868791"
   inkscape:cx="215.0585"
   inkscape:cy="203.67897"
   inkscape:window-x="0"
   inkscape:window-y="0"
   inkscape:window-maximized="0"
   inkscape:current-layer="Capa_1" />
<g
   id="g3"
   transform="translate(0,-9.558)">
	<path fill="#fff"
   id="LinkedIn"
   d="m 430.117,261.543 0,159.017 -92.188,0 0,-148.367 c 0,-37.271 -13.334,-62.707 -46.703,-62.707 -25.473,0 -40.632,17.142 -47.301,33.724 -2.432,5.928 -3.058,14.179 -3.058,22.477 l 0,154.873 -92.219,0 c 0,0 1.242,-251.285 0,-277.32 l 92.21,0 0,39.309 c -0.187,0.294 -0.43,0.611 -0.606,0.896 l 0.606,0 0,-0.896 c 12.251,-18.869 34.13,-45.824 83.102,-45.824 60.673,-0.001 106.157,39.636 106.157,124.818 z M 52.183,9.558 C 20.635,9.558 0,30.251 0,57.463 c 0,26.619 20.038,47.94 50.959,47.94 l 0.616,0 c 32.159,0 52.159,-21.317 52.159,-47.94 C 103.128,30.251 83.734,9.558 52.183,9.558 Z M 5.477,420.56 l 92.184,0 0,-277.32 -92.184,0 0,277.32 z"
   inkscape:connector-curvature="0" />
</g>
<g
   id="g6"
   transform="translate(0,-9.558)">
</g>
<g
   id="g8"
   transform="translate(0,-9.558)">
</g>
<g
   id="g10"
   transform="translate(0,-9.558)">
</g>
<g
   id="g12"
   transform="translate(0,-9.558)">
</g>
<g
   id="g14"
   transform="translate(0,-9.558)">
</g>
<g
   id="g16"
   transform="translate(0,-9.558)">
</g>
<g
   id="g18"
   transform="translate(0,-9.558)">
</g>
<g
   id="g20"
   transform="translate(0,-9.558)">
</g>
<g
   id="g22"
   transform="translate(0,-9.558)">
</g>
<g
   id="g24"
   transform="translate(0,-9.558)">
</g>
<g
   id="g26"
   transform="translate(0,-9.558)">
</g>
<g
   id="g28"
   transform="translate(0,-9.558)">
</g>
<g
   id="g30"
   transform="translate(0,-9.558)">
</g>
<g
   id="g32"
   transform="translate(0,-9.558)">
</g>
<g
   id="g34"
   transform="translate(0,-9.558)">
</g>
</svg>