<?xml version="1.0" encoding="UTF-8" standalone="no"?>
<!-- Created with Inkscape (http://www.inkscape.org/) -->

<svg
   xmlns:dc="http://purl.org/dc/elements/1.1/"
   xmlns:cc="http://creativecommons.org/ns#"
   xmlns:rdf="http://www.w3.org/1999/02/22-rdf-syntax-ns#"
   xmlns:svg="http://www.w3.org/2000/svg"
   xmlns="http://www.w3.org/2000/svg"
   xmlns:sodipodi="http://sodipodi.sourceforge.net/DTD/sodipodi-0.dtd"
   xmlns:inkscape="http://www.inkscape.org/namespaces/inkscape"
   id="svg3399"
   version="1.1"
   inkscape:version="0.91 r13725"
   width="112.32675"
   height="230.23146"
   xml:space="preserve"
   sodipodi:docname="netflix.svg"><metadata
     id="metadata3405"><rdf:RDF><cc:Work
         rdf:about=""><dc:format>image/svg+xml</dc:format><dc:type
           rdf:resource="http://purl.org/dc/dcmitype/StillImage" /><dc:title></dc:title></cc:Work></rdf:RDF></metadata><defs
     id="defs3403" /><sodipodi:namedview
     pagecolor="#ffffff"
     bordercolor="#666666"
     borderopacity="1"
     objecttolerance="10"
     gridtolerance="10"
     guidetolerance="10"
     inkscape:pageopacity="0"
     inkscape:pageshadow="2"
     inkscape:window-width="701"
     inkscape:window-height="455"
     id="namedview3401"
     showgrid="false"
     fit-margin-left="0.5"
     fit-margin-bottom="0.5"
     fit-margin-top="0.5"
     fit-margin-right="0.5"
     inkscape:zoom="0.83032488"
     inkscape:cx="14.568048"
     inkscape:cy="95.415235"
     inkscape:window-x="1101"
     inkscape:window-y="115"
     inkscape:window-maximized="0"
     inkscape:current-layer="g3407" /><g
     id="g3407"
     inkscape:groupmode="layer"
     inkscape:label="Netflix_Web_Logo"
     transform="matrix(1.25,0,0,-1.25,-114.07679,349.21501)"><path
       inkscape:connector-curvature="0"
       id="path3413"
       style="fill:#211c1d;fill-opacity:1;fill-rule:nonzero;stroke:none"
       d="m 137.78545,278.97201 0,-3.16923 c 0,0 -0.0113,-5.60067 -0.0113,-10.46353 -4.86734,5.39275 -12.28393,13.63276 -12.28393,13.63276 l -33.828792,0 0.01126,-167.99352 19.491872,-15.391647 20.32093,2.543617 c 0,0 0.0846,8.87183 0.14669,14.8954 6.67214,-5.49339 15.80863,-12.99458 15.80863,-12.99458 l 33.28202,3.38956 0,158.26404 -18.05959,17.25248 -24.87783,0.0346" /><path
       inkscape:connector-curvature="0"
       id="path3431"
       style="fill:#ffffff;fill-opacity:1;fill-rule:nonzero;stroke:none"
       d="m 143.32388,147.19829 -1.12793,-0.13572 -19.43556,127.39743 -25.887517,0.0274 0.01126,-159.90496 c 0,0 5.143687,0.73881 16.074007,1.97965 l -1.12807,121.54771 1.12244,0.10106 18.4936,-119.7481 c 0,0 6.32244,0.74445 27.81693,2.87079 l 0,153.14375 -16.51438,0 0.57522,-127.27904" /></g></svg>