<?xml version="1.0" encoding="UTF-8" standalone="no"?>
<!-- Created with Inkscape (http://www.inkscape.org/) -->

<svg
   xmlns:dc="http://purl.org/dc/elements/1.1/"
   xmlns:cc="http://creativecommons.org/ns#"
   xmlns:rdf="http://www.w3.org/1999/02/22-rdf-syntax-ns#"
   xmlns:svg="http://www.w3.org/2000/svg"
   xmlns="http://www.w3.org/2000/svg"
   xmlns:sodipodi="http://sodipodi.sourceforge.net/DTD/sodipodi-0.dtd"
   xmlns:inkscape="http://www.inkscape.org/namespaces/inkscape"
   version="1.1"
   width="127.49309pt"
   height="178.4252pt"
   viewBox="0 0 127.49309 178.4252"
   id="svg2"
   inkscape:version="0.91 r13725"
   sodipodi:docname="NewYorkTimes.svg">
  <metadata
     id="metadata23">
    <rdf:RDF>
      <cc:Work
         rdf:about="">
        <dc:format>image/svg+xml</dc:format>
        <dc:type
           rdf:resource="http://purl.org/dc/dcmitype/StillImage" />
        <dc:title></dc:title>
      </cc:Work>
    </rdf:RDF>
  </metadata>
  <sodipodi:namedview
     pagecolor="#ffffff"
     bordercolor="#666666"
     borderopacity="1"
     objecttolerance="10"
     gridtolerance="10"
     guidetolerance="10"
     inkscape:pageopacity="0"
     inkscape:pageshadow="2"
     inkscape:window-width="1920"
     inkscape:window-height="1057"
     id="namedview21"
     showgrid="false"
     fit-margin-top="0"
     fit-margin-left="0"
     fit-margin-right="0"
     fit-margin-bottom="0"
     inkscape:zoom="0.42327511"
     inkscape:cx="1069.3048"
     inkscape:cy="76.888994"
     inkscape:window-x="0"
     inkscape:window-y="0"
     inkscape:window-maximized="1"
     inkscape:current-layer="svg2" />
  <defs
     id="defs64" />
  <path
     d="m 98.052231,0.01400579 c -1.581712,0.0755984 -3.118752,0.47812496 -4.6,1.42500001 6.1,1.22 13.249999,2.04 17.099999,7.6 1.93,2.0500002 1.33,5.2000002 -0.6,7.0000002 -3.65,4.35 -9.915,5.715 -15.274999,4.325 -18.17,-4.29 -35.355,-12.6300002 -54.025,-14.8000002 -10,-1.32 -19.775,3.49 -26.675,10.4500002 -6.3699999,6.39 -8.6849999,16.09 -7.4249999,24.85 1.41,6.93 6.5449999,14.13 13.9749999,15.15 -4.4,-4.78 -5.235,-13.08 -0.675,-18.05 2.58,-3.2 7.165,-3.64 10.975,-3.05 14.47,2.69 28.57,7.045 43,9.975 8.08,2.2 16.065,4.825 24.325,6.325 0.15,9.87 0.15,19.73 0,29.6 -5.33,3.98 -10.42,8.265 -15.65,12.375 5.09,3.81 10.34,7.380004 15.6,10.950004 0.34,13.96 -0.05,27.915 0.2,41.875 -8.61,6.65 -20.145,7.73 -30.625,6.5 -11.13,-0.62 -21.01,-7.25 -28.3,-15.3 12.22,-6.52 24.675,-12.67 37.175,-18.65 0.44,-22.010004 0.08,-44.030004 0.2,-66.050004 -15.62,6.55 -31.08,13.45 -46.65,20.1 4.5,-11.51 13.655,-20.835 24.575,-26.375 -2.85,0.17 -5.84,-0.04 -8.5,1.2 -20.44,8.07 -37.2849999,25.415 -43.6249999,46.575 -4.24,13.440004 -2.87500001,28.135004 1.725,41.275004 5.7,14.62 16.2449999,27.56 30.2249999,34.95 7.85,4.06 16.3,7.865 25.3,7.975 18.63,1.55 38.23,-5.48 50.799999,-19.5 5.49,-5.89 8.255,-13.57 10.975,-21 2.52,-7.32 3.66,-15.11 3.4,-22.85 -6.03,11.96 -14.05,23.195 -24.999999,31.125 0.07,-13.91 -0.02496,-27.815 0.02496,-41.725 4.76,-3.63 9.54,-7.255004 14.15,-11.075004 -4.73,-4.19 -9.43,-8.375 -14.15,-12.575 0.02,-9.78 -0.02,-19.58 0,-29.35 10.65004,-0.56 22.90504,-6.18 25.77504,-17.35 2,-7.29 3.045,-15.925 -1.425,-22.525 -4.11,-4.6800002 -9.44,-8.7450002 -15.7,-9.8750002 -3.465,-0.3025 -7.12023,-1.66631593 -10.599999,-1.50000001 z m -49.825,67.07500021 c -0.04,21.2 0.125,42.400004 -0.075,63.600004 -3.54,1.39 -7.02,2.91 -10.5,4.45 -6.42,-9.29 -10.41,-20.225 -12.25,-31.325 -0.5,-9.370004 1.24,-18.860004 4.5,-27.650004 6.16,-2.93 12.185,-6.095 18.325,-9.075 z"
     id="path6"
     style="fill:#fff;fill-opacity:1;stroke:none"
     inkscape:connector-curvature="0" />
</svg>
