<?xml version="1.0" encoding="UTF-8" standalone="no"?>
<svg
   xmlns:dc="http://purl.org/dc/elements/1.1/"
   xmlns:cc="http://creativecommons.org/ns#"
   xmlns:rdf="http://www.w3.org/1999/02/22-rdf-syntax-ns#"
   xmlns:svg="http://www.w3.org/2000/svg"
   xmlns="http://www.w3.org/2000/svg"
   xmlns:sodipodi="http://sodipodi.sourceforge.net/DTD/sodipodi-0.dtd"
   xmlns:inkscape="http://www.inkscape.org/namespaces/inkscape"
   enable-background="new 0 0 512 512"
   height="254.10631"
   id="Layer_1"
   version="1.1"
   viewBox="0 0 346.60547 254.10631"
   width="346.60547"
   xml:space="preserve"
   inkscape:version="0.91 r13725"
   sodipodi:docname="okcupid.svg"><metadata
     id="metadata25"><rdf:RDF><cc:Work
         rdf:about=""><dc:format>image/svg+xml</dc:format><dc:type
           rdf:resource="http://purl.org/dc/dcmitype/StillImage" /><dc:title></dc:title></cc:Work></rdf:RDF></metadata><defs
     id="defs23" /><sodipodi:namedview
     pagecolor="#ffffff"
     bordercolor="#666666"
     borderopacity="1"
     objecttolerance="10"
     gridtolerance="10"
     guidetolerance="10"
     inkscape:pageopacity="0"
     inkscape:pageshadow="2"
     inkscape:window-width="701"
     inkscape:window-height="480"
     id="namedview21"
     showgrid="false"
     fit-margin-top="0"
     fit-margin-left="0"
     fit-margin-right="0"
     fit-margin-bottom="0"
     inkscape:zoom="0.4609375"
     inkscape:cx="74.590771"
     inkscape:cy="-20.093467"
     inkscape:window-x="1325"
     inkscape:window-y="131"
     inkscape:window-maximized="0"
     inkscape:current-layer="Layer_1" /><path
     style="fill:#ffffff"
     inkscape:connector-curvature="0"
     id="path17"
     d="m 171.56577,94.177315 c 2.268,-16.779 6.65,-52.758 11.033,-69.836 2.27,-6.199 5.445,-11.035 9.527,-14.6679999 10.582,-9.37100003 26.453,-10.729 39.898,-9.06600003 8.773,1.05700003 18.145,3.93000003 25.402,9.21700003 4.988,3.1739999 8.008,9.0719999 7.254,15.4179999 l -8.918,66.367 c 7.105,-8.014 15.875,-16.178 26.605,-18.9 14.512,-3.777 39.004,-2.871 50.941,5.898 11.488,8.465 14.816,21.617005 12.699,35.070005 -1.66,11.182 -9.523,25.996 -22.523,24.793 -4.684,-0.457 -9.371,-0.305 -14.059,-0.305 -5.141,4.234 -9.672,10.883 -13.605,16.168 l 17.531,31.91 c 5.449,-1.07 10.285,-2.73 16.785,1.352 8.914,5.594 12.543,15.578 12.543,25.699 0,14.813 -8.012,26.449 -21.16,32.797 -12.551,5.902 -34.469,8.473 -48.219,6.809 -7.109,-0.762 -13.609,-3.172 -19.203,-7.715 -1.66,-1.352 -3.32,-3.016 -4.836,-4.832 -4.836,-5.742 -7.711,-12.246 -11.035,-18.895 l -1.813,13.906 c -0.301,6.195 -4.238,11.941 -10.582,14.211 -16.48,5.898 -45.656,6.047 -58.5,-5.297 -4.537,-3.926 -7.711,-8.762 -9.523,-14.504 -20.561,17.984 -47.316,24.332 -73.922,24.332 -32.652,0 -65.758,-11.938 -78.1539997,-44.59 -8.615,-22.676 -6.951,-53.66 1.211,-76.492 C 16.31577,106.72532 34.60477,87.979315 60.90977,77.549315 c 19.5,-7.713 42.627,-9.07 63.186,-6.199 17.386,2.415 35.374,9.675 47.47,22.827 l 0,0 z" /><path
     style="fill:#154fa0"
     inkscape:connector-curvature="0"
     id="path19"
     d="m 174.13777,150.25932 c 0,-9.676 -1.064,-18.293 -3.479,-26.303 -2.42,-7.859 -6.502,-14.664 -12.096,-20.254 -5.594,-5.594005 -12.85,-9.980005 -21.77,-13.002005 -9.07,-3.174 -19.955,-4.688 -32.953,-4.688 -13.756,0 -26.152,2.119 -37.037,6.5 -10.881,4.232 -20.102,10.281005 -27.664,17.838005 -7.555,7.711 -13.299,16.932 -17.23,27.967 -3.93,11.031 -5.896,23.129 -5.896,36.281 0,22.676 6.197,39 18.445,48.824 12.395,9.824 28.719,14.66 49.43,14.66 28.871,0 51.094,-7.859 66.814,-23.43 15.719,-15.709 23.436,-37.182 23.436,-64.393 l 0,0 z m -48.68,1.668 c 0,16.621 -3.326,29.316 -9.826,38.238 -6.65,8.922 -14.963,13.457 -24.941,13.457 -8.92,0 -15.119,-2.422 -18.594,-7.563 -3.479,-4.984 -5.141,-12.848 -5.141,-23.582 0,-7.402 0.756,-14.363 2.27,-20.703 1.664,-6.352 3.779,-11.793 6.65,-16.48 2.873,-4.691 6.5,-8.314 10.582,-10.883 4.232,-2.723 9.068,-3.932 14.512,-3.932 9.371,0 15.721,2.568 19.195,7.709 3.479,5.134 5.293,13.005 5.293,23.739 l 0,0 z m 205.129,-45.81 c 0,-6.500005 -2.262,-11.334005 -6.652,-14.508005 -4.379,-3.328 -12.395,-4.84 -23.879,-4.84 -5.445,0 -9.98,0.453 -13.758,1.363 -3.781,0.904 -7.863,3.477 -12.395,7.707 -4.535,4.232005 -9.977,10.430005 -16.328,18.895005 -6.348,8.314 -14.816,19.959 -25.695,34.768 l 16.93,-126.223005 c -3.176,-2.418 -6.953,-4.234 -11.641,-5.441 -4.684,-1.207 -9.523,-1.814 -14.512,-1.814 -9.07,0 -15.719,1.814 -19.949,5.594 -4.238,3.625 -6.957,11.188 -8.473,22.371 l -20.098,152.834005 c -1.363,9.824 -2.121,16.625 -2.121,20.406 0,13.457 7.711,20.102 22.973,20.102 3.785,0 8.168,-0.148 13.156,-0.449 4.832,-0.457 8.918,-1.215 12.391,-2.422 l 8.926,-67.422 24.031,49.129 c 1.969,4.074 3.629,7.563 5.293,10.277 1.813,2.727 3.48,4.836 5.441,6.5 1.965,1.516 4.082,2.574 6.652,3.328 2.57,0.758 5.59,1.059 9.066,1.059 15.121,0 26.609,-1.813 34.621,-5.746 8.012,-3.773 12.09,-9.82 12.09,-18.289 0,-2.422 -0.301,-4.688 -1.055,-6.953 -0.758,-2.266 -2.117,-4.082 -3.93,-5.141 -2.27,0.453 -4.531,0.758 -6.805,1.059 -2.422,0.148 -4.531,0.301 -6.199,0.301 -1.813,0 -3.324,-0.602 -4.383,-1.664 -1.059,-1.059 -2.117,-2.258 -3.176,-3.773 l -24.336,-43.992 c 5.293,-7.258 9.523,-12.844 13,-17.082 3.328,-4.23 6.199,-7.258 8.613,-9.369 2.273,-1.969 4.391,-3.328 6.051,-3.781 1.664,-0.455 3.477,-0.756 5.285,-0.756 2.273,0 4.691,0 7.262,0 2.571,0 5.289,0.152 7.859,0.451 1.965,-1.963 3.324,-4.232 4.387,-6.799 0.909,-2.721 1.358,-5.897 1.358,-9.68 l 0,0 z" /></svg>