<?xml version="1.0" encoding="UTF-8" standalone="no"?>
<!-- Generator: Adobe Illustrator 20.1.0, SVG Export Plug-In . SVG Version: 6.00 Build 0)  -->

<svg
   xmlns:dc="http://purl.org/dc/elements/1.1/"
   xmlns:cc="http://creativecommons.org/ns#"
   xmlns:rdf="http://www.w3.org/1999/02/22-rdf-syntax-ns#"
   xmlns:svg="http://www.w3.org/2000/svg"
   xmlns="http://www.w3.org/2000/svg"
   xmlns:sodipodi="http://sodipodi.sourceforge.net/DTD/sodipodi-0.dtd"
   xmlns:inkscape="http://www.inkscape.org/namespaces/inkscape"
   version="1.1"
   id="Layer_1"
   x="0px"
   y="0px"
   width="58.63353"
   height="74.917084"
   viewBox="0 0 58.63353 74.917084"
   enable-background="new 0 0 140 160"
   xml:space="preserve"
   inkscape:version="0.91 r13725"
   sodipodi:docname="papajohns.svg"><metadata
   id="metadata23"><rdf:RDF><cc:Work
       rdf:about=""><dc:format>image/svg+xml</dc:format><dc:type
         rdf:resource="http://purl.org/dc/dcmitype/StillImage" /><dc:title>papa-rewards--order</dc:title></cc:Work></rdf:RDF></metadata><defs
   id="defs21">
	

		
	
			
		
				
			
					
				
						
						
						
					</defs><sodipodi:namedview
   pagecolor="#ffffff"
   bordercolor="#666666"
   borderopacity="1"
   objecttolerance="10"
   gridtolerance="10"
   guidetolerance="10"
   inkscape:pageopacity="0"
   inkscape:pageshadow="2"
   inkscape:window-width="1130"
   inkscape:window-height="539"
   id="namedview19"
   showgrid="false"
   fit-margin-top="0"
   fit-margin-left="0"
   fit-margin-right="0"
   fit-margin-bottom="0"
   inkscape:zoom="8.34386"
   inkscape:cx="22.954619"
   inkscape:cy="22.853582"
   inkscape:window-x="0"
   inkscape:window-y="0"
   inkscape:window-maximized="0"
   inkscape:current-layer="Layer_1" />
<title
   id="title3">papa-rewards--order</title>
<desc
   id="desc5">Created with Sketch.</desc>
<path
   id="repeat--pizza-bottom"
   d="m 30.321149,14.118478 c -8.342,1.192 -15.195,3.671 -23.5049999,8.41 1.343,5.893 6.2399999,11.051 9.3849999,16.14 4.322,7.001 8.367,14.185 12.664,21.153001 1.544,2.498 7.314,15.454 9.839,15.088 2.169,-0.317 5.638,-17.285 6.221,-20.226 1.54,-7.721001 6.241,-18.830001 7.115,-26.313001 0.521,-4.466 3.272,-9.546 2.613,-12.374 -0.495,-0.38 -1.181,-0.68 -2.108,-0.882 -7.773,-1.7 -15.663,-1.931 -22.224,-0.996 l 0,0 z m 11.537,4.059 c 7.122,-1.017 8.471,10.347 1.595,11.328 -6.922,0.99 -8.771,-10.303 -1.595,-11.328 l 0,0 z m -6.887,30.223 c 7.123,-1.015 8.472,10.346001 1.595,11.328001 -6.92,0.988 -8.767,-10.302001 -1.595,-11.328001 l 0,0 z m -13.77,-25.618 c 7.123,-1.018 8.468,10.344 1.596,11.326 -6.925,0.99 -8.768,-10.302 -1.596,-11.326 l 0,0 z"
   inkscape:connector-curvature="0"
   style="fill:#ed1b33" /><path
   id="repeat--pizza-top"
   d="m 29.694149,10.952478 c -11.447,1.633 -22.7419999,7.497 -22.7419999,7.497 -1.374,0.686 -3.137,0.384 -3.953,-0.93 l -2.60299998,-4.023 c -0.807,-1.314 -0.341,-2.948 1.03399998,-3.6310001 0,0 13.2389999,-7.194 26.8219999,-9.13500004 15.4,-2.19799996 28.288,1.26500004 28.288,1.26500004 1.513,0.271 2.408,1.711 1.991,3.2 l -1.176,4.564 c -0.415,1.4890001 -1.994,2.4850001 -3.506,2.2150001 0.002,-0.002 -14.369,-2.4210001 -24.155,-1.022"
   inkscape:connector-curvature="0"
   style="fill:#ba2026" />
<ellipse
   style="fill:#ffffff"
   id="path4142"
   cx="23.119289"
   cy="28.394154"
   rx="7.2033896"
   ry="7.3728814" /><ellipse
   style="fill:#ffffff"
   id="path4142-2"
   cx="41.463737"
   cy="24.557537"
   rx="7.2033896"
   ry="7.3728814" /><ellipse
   style="fill:#ffffff"
   id="path4142-1"
   cx="36.052048"
   cy="54.011463"
   rx="6.2446008"
   ry="6.5339413" /></svg>