<?xml version="1.0" encoding="UTF-8" standalone="no"?>
<!-- Created with Inkscape (http://www.inkscape.org/) -->

<svg
   xmlns:dc="http://purl.org/dc/elements/1.1/"
   xmlns:cc="http://creativecommons.org/ns#"
   xmlns:rdf="http://www.w3.org/1999/02/22-rdf-syntax-ns#"
   xmlns:svg="http://www.w3.org/2000/svg"
   xmlns="http://www.w3.org/2000/svg"
   xmlns:sodipodi="http://sodipodi.sourceforge.net/DTD/sodipodi-0.dtd"
   xmlns:inkscape="http://www.inkscape.org/namespaces/inkscape"
   width="134.6647mm"
   height="167.42294mm"
   viewBox="0 0 477.1584 593.2309"
   id="svg2"
   version="1.1"
   inkscape:version="0.91 r13725"
   sodipodi:docname="perksatwork.svg">
  <defs
     id="defs4" />
  <sodipodi:namedview
     id="base"
     pagecolor="#ffffff"
     bordercolor="#666666"
     borderopacity="1.0"
     inkscape:pageopacity="0.0"
     inkscape:pageshadow="2"
     inkscape:zoom="0.35"
     inkscape:cx="264.56517"
     inkscape:cy="222.85714"
     inkscape:document-units="px"
     inkscape:current-layer="layer1"
     showgrid="false"
     fit-margin-top="0"
     fit-margin-left="0"
     fit-margin-right="0"
     fit-margin-bottom="0"
     inkscape:window-width="905"
     inkscape:window-height="928"
     inkscape:window-x="78"
     inkscape:window-y="78"
     inkscape:window-maximized="0" />
  <metadata
     id="metadata7">
    <rdf:RDF>
      <cc:Work
         rdf:about="">
        <dc:format>image/svg+xml</dc:format>
        <dc:type
           rdf:resource="http://purl.org/dc/dcmitype/StillImage" />
        <dc:title></dc:title>
      </cc:Work>
    </rdf:RDF>
  </metadata>
  <g
     inkscape:label="Layer 1"
     inkscape:groupmode="layer"
     id="layer1"
     transform="translate(-110.43483,-164.84556)">
    <path
       style="fill:#fff"
       d="m 110.88883,574.01399 c 0.33824,-137.1319 0.84497,-186.61222 1.98741,-194.06251 8.95867,-58.42284 29.75243,-102.83534 65.76662,-140.46808 63.23287,-66.07467 163.81647,-91.54867 249.39285,-63.16171 122.63664,40.68039 188.35293,172.72784 147.37545,296.12979 -18.51277,55.75041 -56.09047,99.46091 -108.13446,125.78241 -35.5611,17.9851 -73.35379,26.1283 -113.53924,24.4643 -36.63645,-1.5171 -65.92997,-11.1202 -95.4635,-31.2951 l -9.13676,-6.2415 -9.30074,9.2386 -9.30075,9.2387 0,-47.7812 0,-47.7812 47.78122,0 47.78121,0 -9.17588,9.2375 -9.17587,9.2375 5.79137,3.394 c 28.52324,16.7157 76.00222,15.3306 113.70814,-3.3173 37.94771,-18.7675 63.01496,-49.913 74.21426,-92.2095 4.67067,-17.63976 5.42317,-49.00001 1.61958,-67.49537 -5.9792,-29.07444 -19.31494,-54.10764 -40.04403,-75.16868 -29.82363,-30.30123 -65.54566,-45.21243 -108.125,-45.13388 -44.54161,0.0821 -84.93092,16.56734 -115.02531,46.94835 -21.7338,21.94079 -35.39432,47.52057 -43.46114,81.38237 -2.66812,11.19992 -2.68176,12.07771 -3.06206,197.18751 l -0.38199,185.9375 -41.27269,0 -41.27269,0 0.454,-184.0625 z"
       id="path4162"
       inkscape:connector-curvature="0" />
  </g>
</svg>
