<?xml version="1.0" encoding="UTF-8" standalone="no"?>
<!-- Svg Vector Icons : http://www.onlinewebfonts.com/icon -->

<svg
   xmlns:dc="http://purl.org/dc/elements/1.1/"
   xmlns:cc="http://creativecommons.org/ns#"
   xmlns:rdf="http://www.w3.org/1999/02/22-rdf-syntax-ns#"
   xmlns:svg="http://www.w3.org/2000/svg"
   xmlns="http://www.w3.org/2000/svg"
   xmlns:sodipodi="http://sodipodi.sourceforge.net/DTD/sodipodi-0.dtd"
   xmlns:inkscape="http://www.inkscape.org/namespaces/inkscape"
   version="1.1"
   x="0px"
   y="0px"
   viewBox="0 0 979.90002 980"
   enable-background="new 0 0 1000 1000"
   xml:space="preserve"
   id="svg2"
   inkscape:version="0.91 r13725"
   sodipodi:docname="slack.svg"
   width="979.90002"
   height="980"><defs
   id="defs12" /><sodipodi:namedview
   pagecolor="#ffffff"
   bordercolor="#666666"
   borderopacity="1"
   objecttolerance="10"
   gridtolerance="10"
   guidetolerance="10"
   inkscape:pageopacity="0"
   inkscape:pageshadow="2"
   inkscape:window-width="701"
   inkscape:window-height="480"
   id="namedview10"
   showgrid="false"
   fit-margin-top="0"
   fit-margin-left="0"
   fit-margin-right="0"
   fit-margin-bottom="0"
   inkscape:zoom="0.236"
   inkscape:cx="490"
   inkscape:cy="485.76271"
   inkscape:window-x="3525"
   inkscape:window-y="1324"
   inkscape:window-maximized="0"
   inkscape:current-layer="svg2" />
<metadata
   id="metadata4"> Svg Vector Icons : http://www.onlinewebfonts.com/icon <rdf:RDF><cc:Work
     rdf:about=""><dc:format>image/svg+xml</dc:format><dc:type
       rdf:resource="http://purl.org/dc/dcmitype/StillImage" /><dc:title></dc:title></cc:Work></rdf:RDF></metadata>
<g
   id="g6"
   transform="translate(-10,-10)"><path
     d="m 904.6,467 c 24.3,0 44.7,8 60.9,23.9 16.3,15.9 24.4,35.8 24.4,59.8 0,38.1 -18.3,63.6 -54.8,76.6 l -101.2,34.7 33,98.3 c 2.7,8.2 4.1,17.5 4.1,27.7 0,23.2 -8.2,43.2 -24.7,60.1 -16.5,16.9 -36.3,25.3 -59.5,25.3 -18.4,0 -35.2,-5.3 -50.4,-15.9 -15.1,-10.6 -25.6,-24.7 -31.5,-42.4 l -32.4,-97.2 -182.5,62.4 32.4,96.6 c 3.1,9.4 4.7,18.6 4.7,27.7 0,23.2 -8.2,43.2 -24.7,60.1 -16.5,16.9 -36.6,25.3 -60.1,25.3 -18.4,0 -35.1,-5.3 -50.1,-15.9 -14.9,-10.6 -25.3,-24.7 -31.2,-42.4 l -32.4,-96 -90.1,31.2 c -11.4,3.5 -21.2,5.3 -29.4,5.3 -23.9,0 -43.9,-7.9 -59.8,-23.6 -15.9,-15.7 -23.9,-35.5 -23.9,-59.5 0,-18.4 5.4,-35.1 16.2,-50.1 10.8,-14.9 24.8,-25.3 42.1,-31.2 l 91.9,-31.2 -61.9,-184.3 -91.9,31.8 c -10.2,3.1 -19.6,4.7 -28.3,4.7 -23.6,0 -43.4,-8 -59.5,-23.9 C 18.1,489.1 10,469.4 10,445.8 10,427.4 15.4,410.7 26.2,395.7 37,380.8 51,370.4 68.3,364.6 l 92.5,-31.2 -31.2,-93.6 c -3.1,-9.4 -4.7,-18.6 -4.7,-27.7 0,-23.6 8.2,-43.7 24.7,-60.4 16.5,-16.7 36.5,-25 60.1,-25 18.4,0 35.1,5.3 50.1,15.9 14.9,10.6 25.3,24.7 31.2,42.4 l 31.8,94.2 182.6,-61.9 -31.8,-94.2 c -3.1,-9.4 -4.7,-18.6 -4.7,-27.7 0,-23.2 8.3,-43.2 25,-60.1 C 510.5,18.5 530.4,10 553.6,10 572,10 588.8,15.4 604,26.2 619.2,37 629.6,51 635.5,68.3 l 31.2,94.8 95.4,-32.4 c 8.2,-2.4 16.7,-3.5 25.3,-3.5 23.6,0 43.7,7.8 60.4,23.3 16.7,15.5 25,34.8 25,58 0,17.7 -5.9,33.7 -17.7,48 -11.8,14.3 -26.3,24.4 -43.6,30.3 l -92.5,31.8 61.9,186.1 96.6,-33 c 9.4,-3.1 18.4,-4.7 27.1,-4.7 l 0,0 z M 437,621.3 619.6,559.4 557.8,374 375.2,437 437,621.3 Z"
     id="path8"
	 fill="#fff"
     inkscape:connector-curvature="0" /></g>
</svg>