<?xml version="1.0" encoding="UTF-8" standalone="no"?>
<svg
   xmlns:dc="http://purl.org/dc/elements/1.1/"
   xmlns:cc="http://creativecommons.org/ns#"
   xmlns:rdf="http://www.w3.org/1999/02/22-rdf-syntax-ns#"
   xmlns:svg="http://www.w3.org/2000/svg"
   xmlns="http://www.w3.org/2000/svg"
   version="1.1"
   id="svg2"
   viewBox="0 0 496.8017 488.45571"
   height="137.85306mm"
   width="140.20848mm">
  <defs
     id="defs4" />
  <metadata
     id="metadata7">
    <rdf:RDF>
      <cc:Work
         rdf:about="">
        <dc:format>image/svg+xml</dc:format>
        <dc:type
           rdf:resource="http://purl.org/dc/dcmitype/StillImage" />
        <dc:title></dc:title>
      </cc:Work>
    </rdf:RDF>
  </metadata>
  <g
     transform="translate(-92.242238,-265.00107)"
     id="layer1">
    <path
       id="path4147"
       d="m 340.66351,718.49616 c -56.71875,-19.21115 -112.5787,-38.08597 -124.13324,-41.94405 -20.25674,-6.76376 -20.99453,-7.1286 -20.625,-10.19936 0.35277,-2.93154 1.22774,-3.3563 11.00824,-5.34405 27.17765,-5.52348 47.51408,-18.05007 61.84012,-38.09149 18.64991,-26.09033 23.92208,-55.94787 13.88619,-78.6408 -4.88986,-11.05688 -12.16811,-20.68074 -26.82424,-35.46914 -15.40654,-15.54559 -19.3589,-21.77381 -19.26214,-30.3538 0.0761,-6.74547 2.35198,-11.55234 8.07058,-17.0456 12.04094,-11.56646 32.84289,-10.07467 53.2736,3.82044 l 9.64089,6.55686 16.00638,-24.37664 16.00639,-24.37665 -2.88139,-2.23222 c -4.504,-3.48926 -23.30942,-12.92361 -31.98228,-16.04493 -4.31799,-1.55402 -8.11804,-3.25774 -8.44454,-3.78604 -0.32651,-0.52832 0.28137,-4.73362 1.35085,-9.34512 1.06947,-4.61151 1.77577,-9.23281 1.56955,-10.26957 -0.26578,-1.33608 -6.92713,-3.48226 -22.87496,-7.36994 -12.375,-3.0167 -23.56144,-5.3346 -24.85875,-5.15089 -1.92179,0.27216 -3.1107,3.34149 -6.41767,16.56795 l -4.05891,16.2339 -11.70734,4.42553 c -6.43903,2.43403 -15.02613,6.32774 -19.08242,8.65266 -15.59003,8.93564 -33.51857,29.94681 -41.13181,48.204 -6.95863,16.68737 -7.62797,35.91935 -1.75607,50.4567 5.57149,13.79364 11.24003,21.72766 26.31399,36.83062 15.77772,15.80808 20.78898,23.61938 20.81176,32.44033 0.0248,9.61921 -6.81183,19.74094 -16.86278,24.96541 -3.80096,1.97574 -7.24822,2.58733 -14.375,2.55033 -12.91037,-0.067 -24.38571,-4.28729 -40.09594,-14.74602 -6.91512,-4.60358 -12.74408,-8.17377 -12.95325,-7.93376 -1.81693,2.08495 -24.67764,36.63631 -26.96126,40.74889 -1.62245,2.92187 -3.362946,5.3125 -3.867776,5.3125 -2.15498,0 -6.34916,-9.21925 -6.95595,-15.2899 -0.61525,-6.15519 1.31623,-12.21597 29.585026,-92.8351 16.63379,-47.4375 42.55354,-121.55589 57.59945,-164.70752 15.04591,-43.15163 28.181,-80.05251 29.18909,-82.00194 2.55273,-4.93643 9.62186,-10.86234 15.12412,-12.67825 2.54536,-0.84005 7.23424,-1.24882 10.41971,-0.90838 4.79231,0.51217 253.3006,83.63825 254.93976,85.27742 0.49767,0.49766 -13.42126,65.01827 -16.18776,75.03771 l -1.3242,4.79586 -3.1014,-6.15745 c -4.2968,-8.53074 -8.4476,-12.52526 -17.79915,-17.12901 -6.97671,-3.43463 -9.63925,-4.02157 -20.16022,-4.44414 -18.66227,-0.74957 -31.67097,2.91134 -47.83069,13.46051 -42.29675,27.61161 -74.72003,98.35718 -77.94916,170.08019 -1.56913,34.85221 5.1099,60.80488 19.77901,76.85521 11.73014,12.83465 24.85605,18.16528 44.59945,18.11251 19.8493,-0.053 34.62172,-6.53623 52.28114,-22.94467 5.09176,-4.73108 9.56452,-8.2952 9.93946,-7.92026 0.37492,0.37494 0.0511,6.98869 -0.71946,14.69721 -0.77064,7.70852 -1.23778,14.1431 -1.03808,14.29902 0.19969,0.15594 14.35155,0.90155 31.44858,1.65692 17.09702,0.75536 31.26343,1.55133 31.48093,1.76883 0.34612,0.34612 -12.15138,37.03909 -17.72606,52.04414 -4.20916,11.32958 -14.44679,18.90579 -25.46537,18.8453 -4.01493,-0.022 -35.14313,-10.02894 -108.75,-34.96026 z m 153.03233,-41.20651 c 0.40454,-1.71734 3.29194,-15.77869 6.41643,-31.24744 13.42967,-66.48771 58.30389,-269.41932 59.93797,-271.05341 0.95585,-0.95584 13.1353,3.15435 17.75074,5.99033 5.99891,3.68607 10.40576,11.17657 11.17221,18.98989 0.62177,6.33824 -1.90601,14.0191 -47.03877,142.93149 -26.23271,74.92831 -47.98345,136.5209 -48.33498,136.87244 -0.35153,0.35152 -0.30815,-0.76597 0.0964,-2.4833 z m -97.21335,-55.52997 c -6.22895,-2.27378 -10.01153,-5.91565 -13.56838,-13.06358 -2.67327,-5.37225 -2.87455,-7.31813 -2.86073,-27.65389 0.0165,-24.37694 1.09364,-30.39354 10.74098,-60 12.79493,-39.26606 25.8177,-55.55874 44.44561,-55.60556 9.47935,-0.0239 13.48394,2.48587 17.83831,11.17942 4.70404,9.39165 4.12528,22.70778 -2.33836,53.80114 -8.28054,39.83355 -13.45509,59.9647 -17.41485,67.75099 -9.40921,18.50181 -24.43243,28.12166 -36.84258,23.59148 z"
       style="fill:#fff" />
  </g>
</svg>
