<?xml version="1.0" encoding="UTF-8" standalone="no"?>
<!-- Generator: Adobe Illustrator 18.1.1, SVG Export Plug-In . SVG Version: 6.00 Build 0)  -->

<svg
   xmlns:dc="http://purl.org/dc/elements/1.1/"
   xmlns:cc="http://creativecommons.org/ns#"
   xmlns:rdf="http://www.w3.org/1999/02/22-rdf-syntax-ns#"
   xmlns:svg="http://www.w3.org/2000/svg"
   xmlns="http://www.w3.org/2000/svg"
   xmlns:sodipodi="http://sodipodi.sourceforge.net/DTD/sodipodi-0.dtd"
   xmlns:inkscape="http://www.inkscape.org/namespaces/inkscape"
   version="1.1"
   id="Capa_1"
   x="0px"
   y="0px"
   viewBox="0 0 100 44"
   xml:space="preserve"
   inkscape:version="0.91 r13725"
   sodipodi:docname="soundcloud.svg"
   width="100"
   height="44"><metadata
   id="metadata41"><rdf:RDF><cc:Work
       rdf:about=""><dc:format>image/svg+xml</dc:format><dc:type
         rdf:resource="http://purl.org/dc/dcmitype/StillImage" /><dc:title></dc:title></cc:Work></rdf:RDF></metadata><defs
   id="defs39" /><sodipodi:namedview
   pagecolor="#ffffff"
   bordercolor="#666666"
   borderopacity="1"
   objecttolerance="10"
   gridtolerance="10"
   guidetolerance="10"
   inkscape:pageopacity="0"
   inkscape:pageshadow="2"
   inkscape:window-width="701"
   inkscape:window-height="480"
   id="namedview37"
   showgrid="false"
   fit-margin-top="0"
   fit-margin-left="0"
   fit-margin-right="0"
   fit-margin-bottom="0"
   inkscape:zoom="2.36"
   inkscape:cx="50"
   inkscape:cy="21.576271"
   inkscape:window-x="0"
   inkscape:window-y="0"
   inkscape:window-maximized="0"
   inkscape:current-layer="Capa_1" />
<g
   id="g3"
   transform="translate(0,-28)">
	<path
   style="fill:#ffffff"
   d="M 3.361,67.281 5,60.279 3.361,53.041 C 3.316,52.826 2.904,52.662 2.402,52.662 c -0.508,0 -0.92,0.164 -0.959,0.381 L 0,60.279 1.443,67.281 c 0.039,0.217 0.451,0.381 0.959,0.381 0.502,0 0.914,-0.164 0.959,-0.381 z M 13.611,71.168 15,60.348 13.611,43.608 c -0.041,-0.426 -0.561,-0.76 -1.191,-0.76 -0.635,0 -1.156,0.334 -1.188,0.76 L 10,60.348 l 1.232,10.82 c 0.031,0.422 0.553,0.756 1.188,0.756 0.631,0 1.15,-0.33 1.191,-0.756 z M 23.84,70.99 25,60.354 23.84,38.067 c -0.031,-0.523 -0.648,-0.934 -1.404,-0.934 -0.762,0 -1.379,0.41 -1.406,0.934 L 20,60.354 21.029,70.996 c 0.027,0.519 0.645,0.928 1.406,0.928 0.756,-0.002 1.374,-0.41 1.405,-0.934 z M 34.049,70.832 35,60.355 34.049,37.906 c -0.023,-0.621 -0.727,-1.107 -1.6,-1.107 -0.879,0 -1.582,0.486 -1.604,1.107 L 30,60.355 30.85,70.83 c 0.018,0.615 0.721,1.102 1.6,1.102 0.872,0 1.575,-0.479 1.599,-1.1 z M 44.248,70.699 45,60.359 44.248,34.619 c -0.016,-0.707 -0.818,-1.281 -1.787,-1.281 -0.971,0 -1.771,0.576 -1.787,1.281 L 40,60.352 c 0,0.017 0.674,10.349 0.674,10.349 0.016,0.698 0.816,1.272 1.787,1.272 0.969,0 1.771,-0.567 1.787,-1.274 z m 7.143,1.281 C 51.424,71.982 86.883,72 87.114,72 94.232,72 100,66.42 100,59.537 100,52.652 94.232,47.072 87.113,47.072 c -1.766,0 -3.449,0.348 -4.984,0.969 C 81.104,36.811 71.363,28 59.484,28 c -2.906,0 -5.742,0.553 -8.244,1.488 -0.972,0.366 -1.232,0.739 -1.24,1.467 l 0,39.553 c 0.01,0.762 0.621,1.398 1.391,1.472 z"
   id="path5"
   inkscape:connector-curvature="0" />
</g>
<g
   id="g7"
   transform="translate(0,-28)">
</g>
<g
   id="g9"
   transform="translate(0,-28)">
</g>
<g
   id="g11"
   transform="translate(0,-28)">
</g>
<g
   id="g13"
   transform="translate(0,-28)">
</g>
<g
   id="g15"
   transform="translate(0,-28)">
</g>
<g
   id="g17"
   transform="translate(0,-28)">
</g>
<g
   id="g19"
   transform="translate(0,-28)">
</g>
<g
   id="g21"
   transform="translate(0,-28)">
</g>
<g
   id="g23"
   transform="translate(0,-28)">
</g>
<g
   id="g25"
   transform="translate(0,-28)">
</g>
<g
   id="g27"
   transform="translate(0,-28)">
</g>
<g
   id="g29"
   transform="translate(0,-28)">
</g>
<g
   id="g31"
   transform="translate(0,-28)">
</g>
<g
   id="g33"
   transform="translate(0,-28)">
</g>
<g
   id="g35"
   transform="translate(0,-28)">
</g>
</svg>