<?xml version="1.0" encoding="UTF-8" standalone="no"?>
<svg
   xmlns:dc="http://purl.org/dc/elements/1.1/"
   xmlns:cc="http://creativecommons.org/ns#"
   xmlns:rdf="http://www.w3.org/1999/02/22-rdf-syntax-ns#"
   xmlns:svg="http://www.w3.org/2000/svg"
   xmlns="http://www.w3.org/2000/svg"
   xmlns:sodipodi="http://sodipodi.sourceforge.net/DTD/sodipodi-0.dtd"
   xmlns:inkscape="http://www.inkscape.org/namespaces/inkscape"
   width="2488.8101"
   height="2500"
   viewBox="0 0 737.45272 740.824"
   id="svg2"
   version="1.1"
   inkscape:version="0.91 r13725"
   sodipodi:docname="whatsapp.svg">
  <metadata
     id="metadata10">
    <rdf:RDF>
      <cc:Work
         rdf:about="">
        <dc:format>image/svg+xml</dc:format>
        <dc:type
           rdf:resource="http://purl.org/dc/dcmitype/StillImage" />
        <dc:title></dc:title>
      </cc:Work>
    </rdf:RDF>
  </metadata>
  <defs
     id="defs8" />
  <sodipodi:namedview
     pagecolor="#ffffff"
     bordercolor="#666666"
     borderopacity="1"
     objecttolerance="10"
     gridtolerance="10"
     guidetolerance="10"
     inkscape:pageopacity="0"
     inkscape:pageshadow="2"
     inkscape:window-width="701"
     inkscape:window-height="480"
     id="namedview6"
     showgrid="false"
     fit-margin-top="0"
     fit-margin-left="0"
     fit-margin-right="0"
     fit-margin-bottom="0"
     inkscape:zoom="0.0944"
     inkscape:cx="1244.4066"
     inkscape:cy="1239.4069"
     inkscape:window-x="1209"
     inkscape:window-y="472"
     inkscape:window-maximized="0"
     inkscape:current-layer="svg2" />
  <path
     d="M 630.02833,107.658 C 560.69933,38.271 468.49733,0.039 370.26633,0 167.86333,0 3.1323276,164.668 3.0513276,367.072 3.0243276,431.771 19.934328,494.927 52.067328,550.595 L -0.02767238,740.824 194.63833,689.777 c 53.634,29.244 114.022,44.656 175.481,44.682 l 0.151,0 c 202.382,0 367.128,-164.689 367.21,-367.094 0.039,-98.088 -38.121,-190.32 -107.452,-259.707 m -259.758,564.8 -0.125,0 c -54.766,-0.021 -108.483,-14.729 -155.343,-42.529 l -11.146,-6.613 -115.516002,30.293 30.834002,-112.592 -7.258,-11.543 C 81.164328,480.894 65.027328,424.745 65.051328,367.095 65.118328,198.865 202.03733,62 370.39133,62 c 81.521,0.031 158.154,31.81 215.779,89.482 57.625,57.672 89.342,134.332 89.311,215.859 -0.07,168.242 -136.987,305.117 -305.211,305.117 m 167.415,-228.514 c -9.176,-4.591 -54.286,-26.782 -62.697,-29.843 -8.41,-3.061 -14.526,-4.591 -20.644,4.592 -6.116,9.182 -23.7,29.843 -29.054,35.964 -5.351,6.122 -10.703,6.888 -19.879,2.296 -9.175,-4.591 -38.739,-14.276 -73.786,-45.526 -27.275,-24.32 -45.691,-54.36 -51.043,-63.542 -5.352,-9.183 -0.569,-14.148 4.024,-18.72 4.127,-4.11 9.175,-10.713 13.763,-16.07 4.587,-5.356 6.116,-9.182 9.174,-15.303 3.059,-6.122 1.53,-11.479 -0.764,-16.07 -2.294,-4.591 -20.643,-49.739 -28.29,-68.104 -7.447,-17.886 -15.012,-15.466 -20.644,-15.746 -5.346,-0.266 -11.469,-0.323 -17.585,-0.323 -6.117,0 -16.057,2.296 -24.468,11.478 -8.41,9.183 -32.112,31.374 -32.112,76.521 0,45.147 32.877,88.763 37.465,94.885 4.587,6.122 64.699,98.771 156.741,138.502 21.891,9.45 38.982,15.093 52.307,19.323 21.981,6.979 41.983,5.994 57.793,3.633 17.628,-2.633 54.285,-22.19 61.932,-43.616 7.646,-21.426 7.646,-39.791 5.352,-43.617 -2.293,-3.826 -8.41,-6.122 -17.585,-10.714"
     id="path4"
     inkscape:connector-curvature="0"
     style="clip-rule:evenodd;fill:#ffffff;fill-rule:evenodd" />
</svg>
