<?xml version="1.0" encoding="UTF-8" standalone="no"?>
<!-- Generated by IcoMoon.io -->

<svg
   xmlns:dc="http://purl.org/dc/elements/1.1/"
   xmlns:cc="http://creativecommons.org/ns#"
   xmlns:rdf="http://www.w3.org/1999/02/22-rdf-syntax-ns#"
   xmlns:svg="http://www.w3.org/2000/svg"
   xmlns="http://www.w3.org/2000/svg"
   xmlns:sodipodi="http://sodipodi.sourceforge.net/DTD/sodipodi-0.dtd"
   xmlns:inkscape="http://www.inkscape.org/namespaces/inkscape"
   version="1.1"
   width="472.86499"
   height="279.34698"
   viewBox="0 0 472.86499 279.34698"
   id="svg2"
   inkscape:version="0.91 r13725"
   sodipodi:docname="yahoo.svg">
  <metadata
     id="metadata14">
    <rdf:RDF>
      <cc:Work
         rdf:about="">
        <dc:format>image/svg+xml</dc:format>
        <dc:type
           rdf:resource="http://purl.org/dc/dcmitype/StillImage" />
        <dc:title></dc:title>
      </cc:Work>
    </rdf:RDF>
  </metadata>
  <defs
     id="defs12" />
  <sodipodi:namedview
     pagecolor="#ffffff"
     bordercolor="#666666"
     borderopacity="1"
     objecttolerance="10"
     gridtolerance="10"
     guidetolerance="10"
     inkscape:pageopacity="0"
     inkscape:pageshadow="2"
     inkscape:window-width="695"
     inkscape:window-height="480"
     id="namedview10"
     showgrid="false"
     fit-margin-top="0"
     fit-margin-left="0"
     fit-margin-right="0"
     fit-margin-bottom="0"
     inkscape:zoom="0.4609375"
     inkscape:cx="236.432"
     inkscape:cy="137.50351"
     inkscape:window-x="1768"
     inkscape:window-y="288"
     inkscape:window-maximized="0"
     inkscape:current-layer="svg2" />
  <g
     id="g4"
     transform="translate(-19.568,-116.326)" />
  <path
     d="M 202.65,27.73 205.599,0 0,0 l 0,27.73 61.204,4.332 118.18,141.465 0,74.394 -67.113,4.382 0,24.76 204.165,0 0,-24.76 -67.082,-2.939 2.928,-77.291 112.261,-100.618 59.832,-5.806 0,-30.659 -172.094,1.485 0,27.689 64.154,1.485 -83.108,71.424 -86.026,-105.011 z"
     id="path6"
     inkscape:connector-curvature="0"
     style="fill:#ffffff" />
  <path
     d="m 472.864,105.912 -54.2,-2.458 -2.478,129.054 25.457,2.437 31.222,-129.034 z m -60.007,173.435 31.262,0 0,-26.337 -33.71,-2.488 2.447,28.825 z"
     id="path8"
     inkscape:connector-curvature="0"
     style="fill:#ffffff" />
</svg>
