<?xml version="1.0" encoding="UTF-8" standalone="no"?>
<!-- Generator: Adobe Illustrator 19.0.0, SVG Export Plug-In . SVG Version: 6.00 Build 0)  -->

<svg
   xmlns:dc="http://purl.org/dc/elements/1.1/"
   xmlns:cc="http://creativecommons.org/ns#"
   xmlns:rdf="http://www.w3.org/1999/02/22-rdf-syntax-ns#"
   xmlns:svg="http://www.w3.org/2000/svg"
   xmlns="http://www.w3.org/2000/svg"
   xmlns:sodipodi="http://sodipodi.sourceforge.net/DTD/sodipodi-0.dtd"
   xmlns:inkscape="http://www.inkscape.org/namespaces/inkscape"
   version="1.1"
   id="Layer_1"
   x="0px"
   y="0px"
   viewBox="0 0 173.2291 228.09665"
   xml:space="preserve"
   inkscape:version="0.91 r13725"
   sodipodi:docname="yelp.svg"
   width="173.2291"
   height="228.09665"><metadata
   id="metadata49"><rdf:RDF><cc:Work
       rdf:about=""><dc:format>image/svg+xml</dc:format><dc:type
         rdf:resource="http://purl.org/dc/dcmitype/StillImage" /><dc:title></dc:title></cc:Work></rdf:RDF></metadata><defs
   id="defs47" /><sodipodi:namedview
   pagecolor="#ffffff"
   bordercolor="#666666"
   borderopacity="1"
   objecttolerance="10"
   gridtolerance="10"
   guidetolerance="10"
   inkscape:pageopacity="0"
   inkscape:pageshadow="2"
   inkscape:window-width="701"
   inkscape:window-height="480"
   id="namedview45"
   showgrid="false"
   fit-margin-top="0"
   fit-margin-left="0"
   fit-margin-right="0"
   fit-margin-bottom="0"
   inkscape:zoom="1.0346475"
   inkscape:cx="86.61507"
   inkscape:cy="118.28152"
   inkscape:window-x="0"
   inkscape:window-y="0"
   inkscape:window-maximized="0"
   inkscape:current-layer="Layer_1" />
<g
   id="g3"
   transform="translate(-27.43343,-4.5639434e-5)">
	<path
   style="fill:#fff"
   d="m 173.22,68.06 c 8.204,6.784 30.709,25.392 27.042,38.455 -1.696,5.867 -8.434,7.746 -13.43,9.579 -11.505,4.171 -23.33,7.471 -35.339,9.9 -9.717,1.971 -30.48,6.279 -26.63,-10.909 1.512,-6.646 6.875,-12.284 11.184,-17.28 8.846,-10.404 17.876,-21.405 28.555,-29.93 0.871,-0.688 1.925,-0.871 2.842,-0.733 1.788,-0.732 3.942,-0.64 5.776,0.918 z"
   id="path5"
   inkscape:connector-curvature="0" />
	<path
   style="fill:#fff"
   d="m 161.119,205.197 c -7.196,-5.821 -12.284,-14.942 -16.684,-22.917 -4.309,-7.7 -11.092,-17.876 -12.238,-26.813 -2.337,-18.38 24.292,-7.333 31.947,-4.675 10.175,3.575 37.447,7.517 34.422,23.421 -2.521,12.971 -18.151,28.784 -31.213,30.801 -0.137,0.046 -0.321,0 -0.504,0 -0.046,0.046 -0.092,0.092 -0.137,0.137 -0.367,0.183 -0.779,0.413 -1.192,0.596 -1.559,0.826 -3.071,0.505 -4.401,-0.55 z"
   id="path7"
   inkscape:connector-curvature="0" />
	<path
   style="fill:#fff"
   d="m 101.58,157.896 c 14.484,-6.004 15.813,10.175 15.721,19.984 -0.137,11.688 -0.504,23.421 -1.375,35.063 -0.321,4.721 -0.137,10.405 -4.629,13.384 -5.546,3.667 -16.225,0.779 -21.955,-1.008 -0.183,-0.092 -0.367,-0.183 -0.55,-0.229 -12.054,-2.108 -26.767,-7.654 -28.188,-18.792 -0.138,-1.283 0.367,-2.429 1.146,-3.3 0.367,-0.688 0.733,-1.329 1.146,-1.925 1.788,-2.475 3.85,-4.675 5.913,-6.921 3.483,-5.179 7.242,-10.175 11.229,-14.988 5.775,-6.967 12.879,-17.693 21.542,-21.268 z"
   id="path9"
   inkscape:connector-curvature="0" />
	<path
   style="fill:#fff"
   d="M 103.689,107.661 C 82.559,90.29 61.979,63.385 51.345,38.497 43.232,19.567 63.858,8.017 79.762,2.792 c 21.451,-7.059 29.976,-0.917 32.13,20.534 1.788,18.471 2.613,37.08 2.475,55.643 -0.046,7.838 2.154,20.488 -2.429,27.547 0.733,2.888 -3.621,4.95 -6.096,2.979 -0.367,-0.275 -0.733,-0.642 -1.146,-0.963 -0.366,-0.229 -0.687,-0.504 -1.007,-0.871 z"
   id="path11"
   inkscape:connector-curvature="0" />
	<path
   style="fill:#fff"
   d="m 101.397,134.566 c 1.696,7.517 -3.621,10.542 -9.854,13.384 -11.092,4.996 -22.734,8.984 -34.422,12.284 -6.784,1.879 -17.188,6.371 -23.742,1.375 -4.95,-3.758 -5.271,-11.596 -5.729,-17.28 -1.008,-12.696 0.917,-42.993 18.517,-44.276 8.617,-0.596 19.388,7.104 26.447,11.138 9.396,5.409 19.48,11.596 26.492,20.076 1.053,0.595 1.924,1.649 2.291,3.299 z"
   id="path13"
   inkscape:connector-curvature="0" />
</g>
<g
   id="g15"
   transform="translate(-27.43343,-4.5639434e-5)">
</g>
<g
   id="g17"
   transform="translate(-27.43343,-4.5639434e-5)">
</g>
<g
   id="g19"
   transform="translate(-27.43343,-4.5639434e-5)">
</g>
<g
   id="g21"
   transform="translate(-27.43343,-4.5639434e-5)">
</g>
<g
   id="g23"
   transform="translate(-27.43343,-4.5639434e-5)">
</g>
<g
   id="g25"
   transform="translate(-27.43343,-4.5639434e-5)">
</g>
<g
   id="g27"
   transform="translate(-27.43343,-4.5639434e-5)">
</g>
<g
   id="g29"
   transform="translate(-27.43343,-4.5639434e-5)">
</g>
<g
   id="g31"
   transform="translate(-27.43343,-4.5639434e-5)">
</g>
<g
   id="g33"
   transform="translate(-27.43343,-4.5639434e-5)">
</g>
<g
   id="g35"
   transform="translate(-27.43343,-4.5639434e-5)">
</g>
<g
   id="g37"
   transform="translate(-27.43343,-4.5639434e-5)">
</g>
<g
   id="g39"
   transform="translate(-27.43343,-4.5639434e-5)">
</g>
<g
   id="g41"
   transform="translate(-27.43343,-4.5639434e-5)">
</g>
<g
   id="g43"
   transform="translate(-27.43343,-4.5639434e-5)">
</g>
</svg>