<?xml version="1.0" encoding="UTF-8" standalone="no"?>
<!-- Generator: Adobe Illustrator 19.0.0, SVG Export Plug-In . SVG Version: 6.00 Build 0)  -->

<svg
   xmlns:dc="http://purl.org/dc/elements/1.1/"
   xmlns:cc="http://creativecommons.org/ns#"
   xmlns:rdf="http://www.w3.org/1999/02/22-rdf-syntax-ns#"
   xmlns:svg="http://www.w3.org/2000/svg"
   xmlns="http://www.w3.org/2000/svg"
   xmlns:sodipodi="http://sodipodi.sourceforge.net/DTD/sodipodi-0.dtd"
   xmlns:inkscape="http://www.inkscape.org/namespaces/inkscape"
   version="1.1"
   id="Layer_1"
   x="0px"
   y="0px"
   viewBox="0 0 310 218.166"
   xml:space="preserve"
   width="512"
   height="360.32578"
   inkscape:version="0.91 r13725"
   sodipodi:docname="youtube.svg"><metadata
   id="metadata39"><rdf:RDF><cc:Work
       rdf:about=""><dc:format>image/svg+xml</dc:format><dc:type
         rdf:resource="http://purl.org/dc/dcmitype/StillImage" /><dc:title></dc:title></cc:Work></rdf:RDF></metadata><defs
   id="defs37" /><sodipodi:namedview
   pagecolor="#ffffff"
   bordercolor="#666666"
   borderopacity="1"
   objecttolerance="10"
   gridtolerance="10"
   guidetolerance="10"
   inkscape:pageopacity="0"
   inkscape:pageshadow="2"
   inkscape:window-width="695"
   inkscape:window-height="480"
   id="namedview35"
   showgrid="false"
   fit-margin-top="0"
   fit-margin-left="0"
   fit-margin-right="0"
   fit-margin-bottom="0"
   inkscape:zoom="0.4609375"
   inkscape:cx="256"
   inkscape:cy="177.9934"
   inkscape:window-x="1663"
   inkscape:window-y="165"
   inkscape:window-maximized="0"
   inkscape:current-layer="Layer_1" />
<g
   id="XMLID_822_"
   transform="translate(0,-45.917)">
	<path
   id="XMLID_823_"
   d="M 297.917,64.645 C 286.727,51.343 266.067,45.917 226.611,45.917 l -143.225,0 c -40.359,0 -61.369,5.776 -72.517,19.938 C 0,79.663 0,100.008 0,128.166 l 0,53.669 c 0,54.551 12.896,82.248 83.386,82.248 l 143.226,0 c 34.216,0 53.176,-4.788 65.442,-16.527 C 304.633,235.518 310,215.863 310,181.835 l 0,-53.669 c 0,-29.695 -0.841,-50.16 -12.083,-63.521 z m -98.896,97.765 -65.038,33.991 c -1.454,0.76 -3.044,1.137 -4.632,1.137 -1.798,0 -3.592,-0.484 -5.181,-1.446 -2.992,-1.813 -4.819,-5.056 -4.819,-8.554 l 0,-67.764 c 0,-3.492 1.822,-6.732 4.808,-8.546 2.987,-1.814 6.702,-1.938 9.801,-0.328 l 65.038,33.772 c 3.309,1.718 5.387,5.134 5.392,8.861 0.004,3.73 -2.065,7.151 -5.369,8.877 z"
   inkscape:connector-curvature="0"
   style="fill:#fff" />
</g>
<g
   id="g5"
   transform="translate(0,-45.917)">
</g>
<g
   id="g7"
   transform="translate(0,-45.917)">
</g>
<g
   id="g9"
   transform="translate(0,-45.917)">
</g>
<g
   id="g11"
   transform="translate(0,-45.917)">
</g>
<g
   id="g13"
   transform="translate(0,-45.917)">
</g>
<g
   id="g15"
   transform="translate(0,-45.917)">
</g>
<g
   id="g17"
   transform="translate(0,-45.917)">
</g>
<g
   id="g19"
   transform="translate(0,-45.917)">
</g>
<g
   id="g21"
   transform="translate(0,-45.917)">
</g>
<g
   id="g23"
   transform="translate(0,-45.917)">
</g>
<g
   id="g25"
   transform="translate(0,-45.917)">
</g>
<g
   id="g27"
   transform="translate(0,-45.917)">
</g>
<g
   id="g29"
   transform="translate(0,-45.917)">
</g>
<g
   id="g31"
   transform="translate(0,-45.917)">
</g>
<g
   id="g33"
   transform="translate(0,-45.917)">
</g>
</svg>